<?xml version="1.0" encoding="iso-8859-1"?>
<!-- Generator: Adobe Illustrator 19.0.0, SVG Export Plug-In . SVG Version: 6.00 Build 0)  -->
<svg version="1.1" id="Capa_1" xmlns="http://www.w3.org/2000/svg" xmlns:xlink="http://www.w3.org/1999/xlink" x="0px" y="0px"
	 viewBox="0 0 377.822 377.822" style="enable-background:new 0 0 377.822 377.822;" xml:space="preserve">
<g>
	<g>
		<path d="M372.542,68.582h-0.4l-133.2-51.6c-4.8-1.6-10,0.4-11.6,5.2c-0.4,0.8-0.4,1.2-0.4,2c-1.6,11.2-6.8,22.4-14.4,30.4
			c-6.4,6.4-14.4,10.8-23.6,10.8s-17.6-4.4-23.6-10.8c-7.6-8-12.8-19.2-14.4-30.4c-0.8-4.8-5.2-8.4-10-7.6c-0.8,0-1.6,0.4-2.4,0.8
			l-132.8,51.2c-4.8,1.6-6.8,6.8-5.2,11.6v0.4l26.8,60.4c2,4.4,7.2,6.4,11.6,4.4l34.4-15.2l18,152.4c0.4,4,3.2,6.8,6.8,7.6
			c18.8,4.8,30.8,10,38.4,18.8c8,9.2,12.8,22.8,16.4,44.8c0.8,4.4,4.4,7.6,8.8,7.6h53.6c4.8,0,8.4-3.6,8.8-8
			c3.6-21.6,8.4-35.2,16.4-44.4c8-8.8,20-14,38.4-18.8c4-0.8,6.4-4.4,6.8-8l17.6-152l34.4,15.2c4.4,2,10,0,12-4.8l26.8-60
			C379.342,76.182,377.342,70.582,372.542,68.582z M337.342,125.382l-36.8-16c-0.8-0.4-2-0.8-3.2-0.8c-4.8-0.4-9.2,2.8-10,8
			l-18.4,158c-18.8,5.2-32,11.6-41.6,22.8c-9.6,10.8-15.2,25.2-19.2,46.4h-38.4c-4-21.2-10-35.6-19.2-46.4
			c-9.6-10.8-22.8-17.6-41.6-22.8l-18.4-158.4c0-0.8-0.4-1.6-0.8-2.4c-2-4.4-7.2-6.8-11.6-4.8l-37.2,16.4l-20-43.6l114.8-44.4
			c3.2,10.8,9.2,21.2,16.8,29.6c9.6,10,22,16.4,36.8,16.4s27.2-6.4,36.8-16.4c7.6-8,13.6-18.4,16.8-29.6l114,44.4L337.342,125.382z"
			/>
	</g>
</g>
<g>
</g>
<g>
</g>
<g>
</g>
<g>
</g>
<g>
</g>
<g>
</g>
<g>
</g>
<g>
</g>
<g>
</g>
<g>
</g>
<g>
</g>
<g>
</g>
<g>
</g>
<g>
</g>
<g>
</g>
</svg>
