<?xml version="1.0" encoding="UTF-8" standalone="no"?>
<svg xmlns="http://www.w3.org/2000/svg" id="svg8721" width="678.76086" height="672.07123">
  <g id="layer1" transform="translate(0 -380.29)">
    <path id="path2962" d="M669.99625 671.93601v351.40379c0 11.02-6.61625 22.7387-18.07875 25.0837-2.55875.5238-5.3525.375-7.97375.375H36.3525c-8.6925 0-16.2025-3.5825-22.145-9.8912-5.9725-6.3413-7.30375-14.1213-7.30375-22.3963V409.83351c0-9.9675 4.645-20.29125 14.16375-24.64875 3.61-1.65375 7.71375-1.4625 11.595-1.4625h607.69875c5.2975 0 10.53625.31875 15.50125 2.325 10.25375 4.1425 13.2775 16.95375 14.295 26.78 1.355 13.0925 1.03125 26.475 1.13625 39.615.17875 22.28375.0787 44.57-.0525 66.85375-.29875 50.87875-1.23125 101.76-1.245 152.64 0 .32875 6.9025-1.01 6.90375-2.93.0225-82.545 3.58-165.28375.79875-247.80375-.5025-14.91-1.68375-34.51-18.5625-39.50125-6.83625-2.0225-14.96125-1.275-22.085-1.275H48.105c-6.19875 0-12.54875-.37-18.7.52375-11.1975 1.6275-21.92375 8.85125-26.9275 19C.20375 404.56101 0 409.56476 0 414.56601v607.24249c0 17.3988 13.9175 30.2863 31.08875 30.2863h581.2825c21.71125 0 50.415 4.0675 62.05125-19.5238 3.3725-6.8387 2.4775-15.4112 2.4775-22.8487V669.00601c0-.3275-6.90375 1.01125-6.90375 2.93"/>
  </g>
</svg>
