<?xml version="1.0" encoding="UTF-8" standalone="no"?>
<svg xmlns="http://www.w3.org/2000/svg" id="svg8676" width="686.09424" height="198.75502" viewBox="0 0 686.09424 198.75502">
  <g id="layer1" transform="translate(0 -853.61)">
    <path id="path3168" d="M676.22748 966.01593c1.19 14.475 2.13625 29.0175 1.7725 43.54877-.12375 4.9437-.24125 10.1525-1.48875 14.9737-.4875 1.8775-.40125 3.7713-.71875 5.72-1.49125 9.1725-8.78 17.4288-18.205 18.28-1.66.15-3.39375.053-5.05875.053H40.021229c-4.9225 0-9.5075-.7162-14.07125-2.8425-6.56875-3.0625-11.39625-9.145-14.0125-15.7537-2.2824996-5.7713-1.425-12.5975-1.07-18.6475.54-9.215 2.03625-18.34002 2.66375-27.54752.90875-13.33625-.28625-26.70875-2.00625-39.93-2.0299996-15.61625-4.3199996-31.0575-3.6062496-46.85625.24-5.34875.655-11.11125 2.5099996-16.195.4875-1.335.33375-3.84125.54-5.10875.51875-3.18875 1.93125-6.15375 3.565-8.90125 3.57-6.0125 9.5625-9.42875 16.5625-9.42875H646.50873c12.0075 0 22.10625 2.26125 26.9725 14.53875 5.21625 13.16125 3.85875 29.11625 3.30125 42.93125-.685 17.06125-1.86625 34.10375-.555 51.16625.045.58 8.05875-1.29125 7.9-3.3525-1.42-18.47.0425-36.93625.71875-55.405.51625-14.1175 1.475-30.88-5.8-43.59125-5.63625-9.84625-17.175-10.06-27.20625-10.06H39.647479c-15.815 0-32.7174996 8.385-36.4924996 24.87375-3.77000002 16.46625-3.78125002 33.46375-2.01625 50.28375 1.695 16.15875 4.68125 32.03 4.80125 48.33375.0687 9.525-1.145 18.9325-2.17375 28.38127-1.2275 11.305-3.05375002 23.6037 3.2225 33.71 5.1149996 8.2362 14.7324996 13.1725 24.2962496 13.1725H642.08498c9.07875 0 17.485-.505 25.80125-5.0925 4.92875-2.7188 8.985-6.2113 12.155-10.88 1.81625-2.6763 2.85-5.78 3.56375-8.9025.36125-1.5725.0213-3.6475.53125-5.0913 1.06375-3.015 1.1975-6.5087 1.4425-9.6525 1.2925-16.61247-.0912-33.52497-1.45125-50.07997-.0488-.5925-8.06875 1.30125-7.9 3.3525"/>
  </g>
</svg>
