<?xml version="1.0" encoding="UTF-8" standalone="no"?>
<svg xmlns="http://www.w3.org/2000/svg" id="svg8351" width="143.56398" height="117.17599" viewBox="0 0 143.56398 117.17599">
  <g id="layer1" transform="translate(-.31 -921.78)">
    <path id="path4220" d="M60.449371 992.16268c-1.5675 14.58632-9.045 43.15132 12.48625 46.57002 10.315 1.6375 23.161253-5.785 29.197499-13.7125 3.9525-5.19 7.6175-10.8875 7.72125-17.5925.0962-6.0975-7.22625-11.82002-11.472496-15.36872-7.811253-6.5275-15.637503-13.0388-23.400003-19.6238-9.00375-7.64-19.32-15.0187-21.76125-27.29999-1.4875-7.48125 1.47875-13.07625 8.18375-15.925 10.1075-4.2975 7.3 12.64125 6.43625 17.0775-1.79125 9.20999-4.07625 18.31879-5.89375 27.52249-.3075 1.5588 12.99-1.465 13.6575-4.8437 1.8175-9.205 4.07625-18.3188 5.89375-27.52254 1.1-5.5725 2.48625-11.59375-.20125-16.905-2.69375-5.31875-12.5775-1.5175-16.33-.26125-10.58 3.54375-24.0175 8.77125-25.72625 21.14125-1.8925 13.71004 10.5175 23.12624 19.68125 30.95874 8.095 6.92 16.28375 13.73 24.4625 20.55 3.96875 3.30882 7.93125 7.00502 10.986253 11.16882 5.1675 7.045-2.087503 17.2975-6.638753 22.61-.88375.99-1.8475 1.895-2.8925 2.715 2.945-2.3038 2.8025-.8713.007-1.3163-1.975-.3137-3.81625-1.2425-5.4975-2.2775-3.9775-2.4487-5.7325-7.3225-6.8475-11.58-2.7925-10.6487.61375-21.31872 1.75625-31.94622.0162-.1513-13.3675 1.7687-13.80875 5.8612"/>
    <path id="path4228" d="M54.275071 976.88168c.555 1.2525.28625 2.5475.61375 3.8788.45875 1.8587.97 3.6987 1.2325 5.5975.39875 2.8687.68375 4.9975 3.6975 6.02 7.2375 2.4587 15.53375-3.9238 21.07-7.7588 2.005-1.3875 4.305-3.3062 3.48375-5.9625-1.12-3.625-3.3025-6.7887-4.97625-10.16-1.57375-3.17-4.555-2.8525-7.52375-2-4.6575 1.3413-9.23625 3.2088-13.1975 6.0375-2.15625 1.5413-1.7025 2.6375.91125 2.1475 3.38875-.6337 6.9575-2.14 9.765-4.1437-5.18125.1675-6.61625 1.1475-4.3075 2.9425.3975.5787.73625 1.1887 1.01875 1.8312.815 1.6425 1.695 3.3213 2.73875 4.8413.9325 1.355 1.52375 3.5837 2.01 5.1612.38 1.2288-2.0975 2.3163-2.79875 2.7913-2.425 1.7687-.4825 1.1212 5.82875-1.9425-.69-.1238-1.3625-.3138-2.01375-.57-1.4525-.495-1.62625-2.925-1.78625-4.1275-.24375-1.8275-.6025-3.5638-1.04625-5.3538-.4075-1.6512-.24375-3.5825-.91375-5.0912-1.0175-2.2925-14.77 3.69-13.80625 5.8612"/>
    <path id="path4232" d="M35.337071 1032.5837c3.20375-11.2537 9.4825-21.96 15.79375-31.685 17.90875-27.60122 43.416253-49.67622 71.644999-66.22501 5.48625-3.21625-3.6375-.835-5.44625.225-28.324999 16.60629-53.686249 38.07749-72.583749 65.07879-7.54875 10.78502-14.9725 23.07752-18.615 35.87252-.235.825 8.535-.905 9.20625-3.2663"/>
    <path id="path4236" d="M3.6255663 982.01868c1.47375-.5487.41875-.17 1.39625-.4675 2.366245-.7212 4.766245-1.32 7.1800047-1.85 9.11375-1.9975 18.41875-2.9437 27.73-3.2987 32.67875-1.2463 65.153749 6.5787 95.041249 19.4062 2.3975 1.0288 9.45875-4.1625 8.8675-4.4162-31.2275-13.4038-64.883749-20.94-98.959999-19.3838-13.15875.6025-27.15375 2.3088-39.5950047 6.9413-3.4025 1.2675-8.34625 5.5575-1.66 3.0687"/>
  </g>
</svg>
