<?xml version="1.0" encoding="UTF-8" standalone="no"?>
<svg xmlns="http://www.w3.org/2000/svg" id="svg8351" width="147.07744" height="139.23044" viewBox="0 0 147.07744 139.23044">
  <g id="layer1" transform="translate(0 -913.13)">
    <path id="path3784" d="M118.24874 1028.5058c-12.585 14.9813-30.395 20.8838-49.5138 18.4113-32.6612-4.2288-55.7212-34.3413-56.3062-66.18005-.2963-16.11625 6.1638-31.53625 16.4087-43.735 12.585-14.98125 30.3975-20.88625 49.5163-18.41 32.6637 4.225 55.7175 34.34125 56.3038 66.18125-.3 16.355-5.9038 31.2238-16.4088 43.7325m-48.1275-115.055c-37.68 3.4775-69.39880038 32.665-70.11000038 71.3225-.7637 41.5138 37.51500038 70.9225 76.95880038 67.285 37.6775-3.4775 69.3937-32.665 70.1074-71.32125-.7624-41.4175-36.3725-71.03-76.9562-67.28625"/>
  </g>
</svg>
