<?xml version="1.0" encoding="UTF-8" standalone="no"?>
<svg xmlns="http://www.w3.org/2000/svg" id="svg8351" width="108.2215" height="83.496567" viewBox="0 0 108.2215 83.496567">
  <g id="layer1" transform="translate(-.31 -955.47)">
    <path id="path4288" d="M101.35359 1006.1313c.6238 3.1225.4538 8.205-3.025002 9.23-2.78.8187-5.5587 1.6362-8.3387 2.455-9.0613 2.6662-18.1213 5.3337-27.1813 8.0012-8.6837 2.5563-17.3687 5.1125-26.0537 7.6688-6.3513 1.87-14.48 4.8162-17.185-4.3713-4.02-13.655-8.0375-27.31-12.0574998-40.96506-2.7875-9.4675 5.0311998-9.82 11.3661998-11.6837 9.06-2.6675 18.12-5.335 27.1813-8.0025l26.0512-7.6688c6.3513-1.87 14.4788-4.8162 17.185 4.3725 4.0188 13.6537 8.0388 27.3087 12.057502 40.96376.2775.9401 7.3125-1.5412 6.9038-2.93-4.0188-13.65496-8.0388-27.30876-12.057502-40.96506-2.2813-7.7474-9.8788-7.5525-16.1325-5.7124-7.24 2.1325-14.48 4.2637-21.7213 6.395-15.3575 4.5212-30.7162 9.0412-46.0737 13.5625-7.0487998 2.0749-13.8887998 7.0425-11.46129984 15.2925 2.29880004 7.8075 4.59750004 15.61496 6.89500004 23.42256 2.7974998 9.5025 4.1887998 26.1975 17.8674998 23.4674 8.4025-1.6762 16.7388-4.8849 24.9475-7.2999 12.7338-3.7488 25.4675-7.4975 38.2013-11.2463 8.5262-2.5087 21.898702-5.0762 19.535002-16.9163-.1538-.7675-7.2188 1.3525-6.9038 2.93"/>
    <path id="path4292" d="M93.074888 1007.7873c.4425 1.5012-.4163 3.075-1.9163 3.5162l-21.4037 6.3013c-1.5013.4412-3.075-.4163-3.5175-1.9188l-3.6663-12.4562c-.4425-1.5013.4163-3.0752 1.9175-3.51756l21.4025-6.3c1.5013-.4425 3.075.4162 3.5163 1.9175l3.6675 12.45756z"/>
    <path id="path4296" d="M17.610988 992.33314c9.5825-2.8212 19.1663-5.6437 28.75-8.4637 1.485-.4375 7.4475-4.1213 2.9275-2.7912-9.5825 2.8212-19.1662 5.6437-28.75 8.465-1.485.4362-7.4475 4.12-2.9275 2.7899"/>
    <path id="path4304" d="M54.842388 981.80624c8.2875-2.44 16.575-4.88 24.8637-7.32 1.4838-.4375 7.4475-4.1213 2.9263-2.7913-8.2863 2.44-16.5738 4.88-24.8625 7.3212-1.485.4363-7.4475 4.1201-2.9275 2.79"/>
    <path id="path4308" d="M20.110988 1001.0832c5.505-1.63876 11.0113-3.27496 16.5175-4.91376 1.5688-.4662 3.395-1.1237 4.6063-2.2775 1.1562-1.1-1.275-.6325-1.6788-.5125-5.5062 1.6375-11.0125 3.275-16.5175 4.9138-1.5687.4662-3.3962 1.1237-4.6075 2.27616-1.1562 1.1014 1.2763.6351 1.68.5138"/>
    <path id="path4312" d="M45.109788 994.10724c12.365-3.6238 24.73-7.2475 37.0962-10.8713 1.485-.4363 7.45-4.1162 2.9275-2.7913-12.3662 3.625-24.7312 7.2475-37.0962 10.8725-1.4863.435-7.45 4.1163-2.9275 2.79"/>
  </g>
</svg>
