<?xml version="1.0" encoding="iso-8859-1"?>
<!-- Generator: Adobe Illustrator 19.0.0, SVG Export Plug-In . SVG Version: 6.00 Build 0)  -->
<svg version="1.1" id="Capa_1" xmlns="http://www.w3.org/2000/svg" xmlns:xlink="http://www.w3.org/1999/xlink" x="0px" y="0px"
	 viewBox="0 0 366.4 366.4" style="enable-background:new 0 0 366.4 366.4;" xml:space="preserve">
<g>
	<g>
		<path d="M352.4,51.2c-8.8-8.8-20.4-14-33.6-14H47.6c-13.2,0-25.2,5.2-33.6,14C5.2,60,0,71.6,0,84.8v54c0,12,4.4,25.2,11.2,36.8
			c6.8,12,16.8,22.8,26.8,28.8c5.6,3.2,10,5.6,14,7.6c9.6,4.8,18.4,8.8,34.8,27.2c17.2,18.8,22.4,33.2,26,43.6
			c1.6,4,2.8,7.6,4.4,10.4c3.6,6.8,8.8,15.2,16.4,22.4c8,7.6,18.8,13.6,32,13.6H200c13.6,0,23.6-6,31.2-13.6
			c7.2-7.2,11.6-15.6,14.8-22.4c1.6-3.6,3.2-8,4.8-12.8c4.4-12,10-28.8,24-44.8c13.6-15.2,28-21.6,39.6-26.4c5.2-2,9.6-4,13.6-6.4
			c9.6-5.6,19.6-16.4,27.2-28.8c6.8-11.2,11.2-24,11.2-36V84.8C366.4,71.6,361.2,59.6,352.4,51.2z M348.4,137.6
			c0,8.4-3.6,18-8.8,26.8c-6,10-13.6,18.4-20.8,22.8c-2.8,1.6-6.8,3.6-11.2,5.2c-13.2,5.6-29.6,12.4-46,30.8
			c-16.4,18.4-22.8,37.2-27.6,50.8c-1.6,4.4-2.8,8-4,10.8c-2.4,5.2-6.4,12.4-11.6,17.6c-4.8,4.8-10.8,8.4-18.4,8.4h-34.4
			c-8,0-14.4-3.6-20-8.4c-5.6-5.2-10-12.4-12.8-17.6c-1.2-2-2-4.8-3.2-8.4c-4-11.6-10-28-29.6-49.6c-18.8-20.8-29.2-25.6-40.4-31.2
			c-4-2-8-4-12.4-6.4c-7.6-4.8-15.2-13.2-20.8-22.8c-5.2-9.2-8.4-18.8-8.4-27.6v-16.4h330.4V137.6z M349.6,104h-1.2h-38.8V77.2
			c0-4.8-4-8.8-8.8-8.8s-8.8,4-8.8,8.8V104h-29.2V77.2c0-4.8-4-8.8-8.8-8.8c-4.8,0-8.8,4-8.8,8.8V104h-30V77.2c0-4.8-4-8.8-8.8-8.8
			s-8.8,4-8.8,8.8V104h-29.2V77.2c0-4.8-4-8.8-8.8-8.8s-8.8,4-8.8,8.8V104h-29.2V77.2c0-4.8-4-8.8-8.8-8.8s-8.8,4-8.8,8.8V104H74.8
			V77.2c0-4.8-4-8.8-8.8-8.8c-4.8,0-8.8,4-8.8,8.8V104H19.6V84.8c0-8,3.2-15.6,8.8-20.8c5.2-5.2,12.8-8.8,20.8-8.8H320
			c8,0,15.6,3.2,20.8,8.8c5.2,5.2,8.8,12.8,8.8,20.8V104z"/>
	</g>
</g>
<g>
</g>
<g>
</g>
<g>
</g>
<g>
</g>
<g>
</g>
<g>
</g>
<g>
</g>
<g>
</g>
<g>
</g>
<g>
</g>
<g>
</g>
<g>
</g>
<g>
</g>
<g>
</g>
<g>
</g>
</svg>
