<?xml version="1.0" encoding="UTF-8" standalone="no"?>
<svg xmlns="http://www.w3.org/2000/svg" id="svg8825" width="67.817245" height="100.72062" viewBox="0 0 67.817245 100.72062">
  <g id="layer1" transform="translate(0 -951.64)">
    <path id="path1032" d="M44.830378 1009.0641c-1.425-15.82252-12.16125-27.97002-13.3625-57.42252-5.8825 11.2725-4.5 34.09125-.535 52.43502 4.27625 19.7775.535 46.5062.535 46.5062s15.14375-21.74 13.3625-41.5187"/>
    <path id="path1036" d="M.63974787 978.93718c-2.79999997 9.995 3.92125003 26.56502 13.72125013 37.96872 10.1725 11.8388 13.72 35.4563 13.72 35.4563s3.89-23.7988-2.67125-37.4163c-7.13-14.79-19.6025001-16.21622-24.77000013-36.00872"/>
    <path id="path1040" d="M50.532248 1011.2028c-2.01875 15.0487-12.83 33.855-12.83 33.855s17.0025-9.7425 22.27375-28.6863c4.81125-17.28497.535-17.99872 7.84125-32.25372-8.0575 6.54625-15.325 12.47375-17.285 27.08502"/>
  </g>
</svg>
