<?xml version="1.0" encoding="iso-8859-1"?>
<!-- Generator: Adobe Illustrator 19.0.0, SVG Export Plug-In . SVG Version: 6.00 Build 0)  -->
<svg version="1.1" id="Capa_1" xmlns="http://www.w3.org/2000/svg" xmlns:xlink="http://www.w3.org/1999/xlink" x="0px" y="0px"
	 viewBox="0 0 349.6 349.6" style="enable-background:new 0 0 349.6 349.6;" xml:space="preserve">
<g>
	<g>
		<path d="M339.6,159.585c-4-5.2-8.8-10-14.8-13.6c1.2-2.4,2.4-4.8,3.6-7.2c2.4-6,4-12.8,4-20c0-14.4-5.6-27.2-15.2-36.8
			c-9.2-9.2-22.4-15.2-36.8-15.2c-2.8,0-6,0.4-8.8,0.8c-2.4-9.6-7.6-18-14.4-24.4c-9.2-8.8-22-14.4-36-14.4
			c-7.6,0-14.8,1.6-21.6,4.8c-3.6,1.6-6.8,3.6-9.6,5.6c-3.6-4-8-7.6-12.8-10.4c-7.6-4.4-16.8-7.2-26.4-7.2
			c-14.4,0-27.2,5.6-36.8,15.2c-7.2,7.2-12.4,16.4-14.4,26.8c-0.8,0-1.2-0.4-1.6-0.4c-5.2-1.6-11.2-2.8-17.2-2.8
			c-14.4,0-27.2,5.6-36.8,15.2c-9.2,9.2-15.2,22.4-15.2,36.8c0,6.4,1.2,12.4,3.2,18c0.4,1.2,0.8,2.8,1.6,4
			c-7.6,2.8-14.4,7.6-20,13.6c-8.4,9.6-13.6,21.6-13.6,35.2c0,14.4,4.8,27.2,13.2,36.8c4.4,5.2,9.6,8.8,16,11.6
			c-1.2,1.6-2,3.2-2.8,5.2c-3.6,7.6-5.2,16.8-5.2,26.4c0,14.4,5.6,27.2,15.2,36.8c9.2,9.2,22.4,15.2,36.8,15.2
			c7.2,0,14.4-1.6,20.8-4.4c3.6-1.6,6.8-3.6,10-6c6,5.2,12.4,9.2,19.2,12.8c8.4,4.4,18,7.6,28,9.6c4.8,0.8,9.6-2.4,10.4-7.2
			c0.8-4.8-2.4-9.6-7.2-10.4c-8.4-1.6-16.4-4.4-23.6-8c-4.4-2-8.4-4.8-12.4-7.6c7.6-5.2,15.6-9.2,24-12c11.2-4,23.2-6,36-6
			c12.8,0,24.8,2,36,6c8.4,3.2,16.4,7.2,23.6,12c-5.6,4-11.2,7.6-16.8,8.8c-8.4,3.6-17.6,6-27.6,7.2c-4.8,0.8-8.4,5.2-8,10
			c0.8,4.8,5.2,8.4,10,8c11.6-1.2,22.8-4,32.8-8.4c9.6-4,18.4-9.6,26.4-16.4c6,2.8,14.4,5.6,23.2,5.6c14.4,0,26.8-4.8,35.6-13.6
			s14-20.8,14-35.2c0-6.4-1.2-12.4-3.2-18c-0.8-2-1.6-3.6-2.4-5.6c6.4-3.2,12.4-8,16.8-14c6.8-8.8,10.8-20,10.8-32
			C349.6,178.785,346,168.385,339.6,159.585z M86.4,294.785c-4,1.6-8.8,2.8-13.6,2.8c-9.2,0-18-4-24-10c-6-6-10-14.4-10-24
			c0-7.2,1.2-14,3.6-19.2c2-4.4,4.8-8,9.2-10.4c2-1.2,3.2-2.4,4-4.4c2,9.2,4.8,18,8.8,26.4c6.8,13.6,15.6,26,26.4,36.4
			C89.2,293.585,88,293.985,86.4,294.785z M251.6,281.585c-9.6-6.4-20-12-31.2-16c-13.2-4.8-27.2-7.2-42-7.2
			c-14.8,0-28.8,2.4-42,7.2c-11.2,3.6-21.6,9.2-31.2,16c-10-9.2-18.4-20.8-24.4-33.2c-6.8-14-10.4-30-10.4-46.4
			c0-30,12-56.8,31.6-76.4c19.6-19.6,46.4-31.6,76.4-31.6s56.8,12,76.4,31.6c19.6,19.6,31.6,46.4,31.6,76.4
			c0,16.4-3.6,32.4-10.4,46.4C270,261.185,261.6,272.385,251.6,281.585z M300,283.185c-5.2,5.2-13.2,8.4-22.8,8.4
			c-3.2,0-6.4-0.8-9.2-1.6c9.6-9.6,18-21.2,24-34c2.8-6,5.2-12.4,7.2-18.8c0.4,0.8,0.8,1.2,1.2,1.6c2.4,3.2,4.4,6.4,6,10.4
			c1.2,3.6,2,7.6,2,11.6C308.4,270.385,305.2,277.985,300,283.185z M323.6,212.785c-4.4,5.6-10.8,10-18.4,12c-0.8,0-2,0.4-2.8,1.2
			c1.6-7.6,2.4-15.6,2.4-23.6c0-34.8-14-66.4-36.8-89.2s-54.4-36.8-89.2-36.8s-66.4,14-89.2,36.8s-36.8,54.4-36.8,89.2
			c0,6,0.4,12,1.2,18c-1.6-1.6-4-2.8-6.4-2.8c-8.8,0-16-3.6-21.2-9.2c-5.6-6-8.8-14.8-8.8-24.8c0-8.8,3.2-16.8,8.8-22.8
			s13.2-10,21.6-10.8c1.6,0,3.6-0.8,5.2-2c3.6-3.2,4-9.2,0.8-12.8c-2.4-3.2-4.4-6.4-6-10.4c-1.2-3.6-2-7.6-2-11.6c0-9.2,4-18,10-24
			s14.4-10,24-10c4,0,7.6,0.8,11.2,2c3.6,1.6,7.2,3.2,10,5.6c2,1.6,4.4,2.4,6.8,2c4.8-0.8,8.4-5.2,8-10c0-0.8,0-1.6,0-2
			c0-0.4,0-1.2,0-2c0-9.2,4-18,10-24s14.4-10,24-10c6.4,0,12,2,17.2,4.8c5.2,3.2,9.6,7.2,12.4,12.4c0.8,0.8,1.6,2,2.4,2.8
			c4,3.2,9.6,2.8,12.8-0.8c3.2-3.6,7.2-6.8,11.6-8.8c4-2,8.8-3.2,14-3.2c9.2,0,17.6,3.6,23.6,9.6c6,5.6,10,14,10.4,22.8
			c0,1.2,0.4,2,0.8,3.2c1.6,4.4,7.2,6.8,11.6,4.8c2-0.8,4-1.6,6.4-2c2-0.4,4-0.8,6.4-0.8c9.2,0,18,4,24,10s10,14.4,10,24
			c0,4.8-1.2,9.2-2.8,13.2c-1.6,4-4,7.6-7.2,10.8c-0.8,1.2-2,2.4-2.4,4c-1.2,4.8,1.2,9.6,6,11.2c6.8,2.4,12.8,6.8,17.2,12.4
			c4,5.6,6.4,12.4,6.4,20C330.8,199.185,328,206.385,323.6,212.785z"/>
	</g>
</g>
<g>
</g>
<g>
</g>
<g>
</g>
<g>
</g>
<g>
</g>
<g>
</g>
<g>
</g>
<g>
</g>
<g>
</g>
<g>
</g>
<g>
</g>
<g>
</g>
<g>
</g>
<g>
</g>
<g>
</g>
</svg>
