<?xml version="1.0" encoding="UTF-8" standalone="no"?>
<svg xmlns="http://www.w3.org/2000/svg" id="svg8878" width="70.417198" height="90.249054" viewBox="0 0 70.417198 90.249054">
  <g id="layer1" transform="translate(0 -962.11)">
    <path id="path1088" d="M54.369895 966.16389c18.7825 28.7825-2.43875 63.39621-22.68625 85.27121-1.3375 1.4438 1.51125.8138 2.11375.6438 1.8725-.5238 4.43-1.3875 5.7975-2.865 20.5575-22.2063 42.655-57.33251 23.465-86.73876-1.07375-1.645-9.27125 2.79875-8.69 3.68875"/>
    <path id="path1278" d="M34.113595 966.65589c-12.12125 1.82125-6.54625 17.3775-9.455 30.63-1.29375-14.5475-6.14-25.86125-14.2225-26.18125-9.77999986.72625-11.36999986 12.6775-10.02124986 23.915C2.5960951 1013.2021 21.019845 1025.8096 22.476095 1050.7796c9.37625-6.8675 24.73-31.5962 26.665-48.8887 4.36625-31.67751-8.56875-36.20001-15.0275-35.23501"/>
  </g>
</svg>
