<?xml version="1.0" encoding="UTF-8" standalone="no"?>
<svg xmlns="http://www.w3.org/2000/svg" id="svg9049" width="80.849319" height="100.72185" viewBox="0 0 80.849319 100.72185">
  <g id="layer1" transform="translate(0 -951.64)">
    <path id="path1266" d="M8.9401381 991.6663c-2.90125 14.3387-5.805 28.675-8.70875 43.0112-.98375 4.86 1.23375 5.5238 5.42625 8.495 10.6787499 7.5663 23.8587499 10.24 36.7312499 8.8275 11.1125-1.2212 22.08-5.7975 31.45-11.7725 3.71375-2.3675 7.79625-3.835 6.88-8.395-2.95-14.6925-5.9025-29.39-8.85-44.08245-.22625-.23125-.505-.3125-.83875-.24-17.955.1275-35.90875.2575-53.865.38375-2.14625.015-4.58125 1.23125-6.3825 2.28625-.5225.305-3.1399999 2.08-1.0537499 2.065 17.2099999-.12375 34.4174999-.2475 51.6287499-.37 2.7825-.0213 1.30125-.75625 1.77375 1.5925.88375 4.405 1.76875 8.80745 2.65125 13.21245 1.98625 9.8825 3.96875 19.7663 5.95375 29.6513.25375 1.2775-.0913 1.8612.72 1.1337-.9025.81-1.8975 1.5138-2.88 2.2238-7.845 5.6637-16.9675 8.1937-26.5825 8.41-12.13625.2712-25.70875-5.0263-34.2924999-13.73-.28125-.285 1.0225-5.27 1.25625-6.4213 1.1062499-5.4612 2.2124999-10.925 3.3187499-16.385 1.55875-7.6975 3.11875-15.3937 4.67625-23.09245.2025-1.01375-8.5599999.96375-9.0124999 3.19625"/>
    <path id="path1270" d="M28.990138 987.5868c-1.055-9.47125.32375-36.51625 15.315-30.84125 10.92375 4.13875 10.605 23.66 9.66125 33.05625-.0125.12125 8.84-1.175 9.11-3.865 1.42875-14.265-.735-37.2975-20.16125-33.9725-19.305 3.30375-24.94875 22.27875-23.03375 39.4875.085.77 9.365-1.5675 9.10875-3.865"/>
  </g>
</svg>
