<?xml version="1.0" encoding="UTF-8" standalone="no"?>
<svg xmlns="http://www.w3.org/2000/svg" id="svg28469" width="478.08447" height="235.97585" viewBox="0 0 478.08447 235.97585">
  <g id="layer1" transform="translate(0 -816.386)">
    <g id="g23614" transform="matrix(1.25 0 0 -1.25 153.49 953.86)">
      <path id="path23616" d="M0 0c-1.385 1.456-3.436 3.252-4.212 3.227-.4-.019-.721-.306-1.178-.479-3.313-1.258-6.534.141-9.964.866-2.08.436-3.714.351-4.321-1.981-1.956-7.475-5.702-17.246-7.876-20.604-4.164-6.422-10.203-11.293-17.866-10.694-.22.017 1.433-1.264 3.52-2.204 1.76-.796 3.203-1.076 4.004-1.076 12.11 0 18.53 9.579 21.763 19.058.971 2.859 1.968 5.687 2.696 8.645.552 2.252 1.572 3.277 3.999 2.781.749-.154 1.576-.346 2.437-.546-1.119-2.904-2.117-5.929-2.772-9.013-1.602-7.496-3.304-15.352-.454-22.816.522-1.357 7.619-3.084 7.619-1.68.034 3.361-1.941 5.793-.129 17.989.529 3.572 2.654 11 2.898 11.847C.731-4.709 1.496-1.809 0 0"/>
    </g>
    <g id="g23618" transform="matrix(1.25 0 0 -1.25 254.21 956.54)">
      <path id="path23620" d="M0 0c-.401-.146-.435-.32-1.099-.85-3.171-2.334-9.027-2.209-12.605-2.566-2.268-.236-2.78-.893-3.037-3.264-.322-2.966-.154-3.558-.515-6.52-1.183-9.687-2.377-25.698-16.051-30.103-1.914-.615-2.564-1.101-1.985-1.442 1.372-.807 4.535-2.132 5.838-2.128 13.634.049 19.005 17.039 20.318 27.853.382 3.178.332 3.979.637 7.166.1.999.155 1.953.463 2.916.441 1.391 1.225 1.243 2.525 1.403.772.096 1.614.176 2.502.259-.708-3.181-.85-4.032-1.066-7.256C-4.77-25.082-2.67-33.049-.026-40.15c.49-1.338 3.666-1.866 4.863-2.143 1.416-.325 4.82-.74 4.268.5-3.024 6.758-5.27 12.284-4.809 23.627.142 3.66 1.66 10.501 2.12 11.887.493 1.409.875 1.709 1.31 2.31C8.437-2.991 1.425.509 0 0"/>
    </g>
    <g id="g23622" transform="matrix(1.25 0 0 -1.25 301.18 977.05)">
      <path id="path23624" d="M0 0c-5.846 2.032-10.878 2.525-15.005-3.504-.39-.575 7.38-4.243 8.588-2.418.856 1.276 1.637 2.353 2.821 3.37 1.243.917 1.355-1.093 1.403-1.993.056-1.041-.091-2.141-.233-3.075-.548-3.643-2.805-6.634-5.959-9.068-1.158-.898-2.806-1.822-4.15-2.328-.968-.363-2.774-.719-3.252 1.328-.248 1.01-.461 2.338-.51 3.771-.207 6.39.104 12.909.377 19.327.083 1.92.201 3.62-.578 5.381-.477 1.06-1.98 1.68-2.967 2.095-1.576.651-5.565 1.983-7.264 2.005-.56.004-.371-.418-.238-.545.355-.335 1.043-.715 1.375-1.061 1.229-1.154 1.125-3.814 1.077-4.776-.192-4.425-.352-8.845-.435-13.263-.118-6.328-.937-13.787 5.621-16.615 8.931-3.887 22.247-.412 25.316 10.916C7.501-4.895 4.611-1.594 0 0"/>
    </g>
    <g id="g23626" transform="matrix(1.25 0 0 -1.25 103.7 916.07)">
      <path id="path23628" d="M0 0c2.717 2.105 4.003 2.957 6.33 3.824 4.706 1.51 6.185-1.254 5.856-3.307C11.311-4.92-.1-8.497-10.399-10.383-7.194-6.607-3.879-3.012 0 0m-6.759-14.901c6.222.997 16.537 3.213 21.589 7.985 1.535 1.459 4.863 6.535-.037 12.904-4.291 5.592-12.024 3.834-14.1 3.18-7.45-2.35-13.557-8.739-18.667-14.799-1.693-2.01-3.311-4.168-4.774-6.458-.93-.095-2.534-.983-3.376-1.663-1.231-.992-3.888-3.111-3.221-3.377.809-.326 2.156-.414 3.593-.391-1.97-4.236-3.241-8.799-3.301-13.584-.143-10.394 5.247-17.292 14.129-20.265 8.009-2.69 15.127-.565 21.413 5.232 4.936 4.553 7.665 13.912 5.078 20.481-3.008 7.67-13.117 10.44-19.981 8.758-3.353-.823-10.932-4.704-9.199-9.616.571-1.621 3.164-2.787 4.478-3.421.211-.099 3.299-1.633 3.317-.321.076 5.991 5.178 8.993 9.428 9.612 10.027.638 4.713-12.62 2.995-16.13C.016-42.1-5.757-46.242-11.061-47.613c-4.103-1.057-7.005-.322-8.418 1.877-2.472 3.857-5.613 14.378 4.61 29.548 4.378.651 8.11 1.287 8.11 1.287"/>
    </g>
    <g id="g23630" transform="matrix(1.25 0 0 -1.25 210.55 986.3)">
      <path id="path23632" d="M0 0c-1.945-6.65-7.512-11.463-13.835-12.713-3.571-.344-5.492 2.317-6.325 5.608-1.225 4.904.432 11.418 2.482 15.547 2.658 4.773 7.532 9.191 12.999 8.673 2.074-.197 3.124-1.076 3.763-2.058C1.553 11.266 1.347 4.584 0 0m-7.034 21.864c-7.876 2.068-15.18-1.412-19.027-8.253-1.32-2.627-2.238-5.715-2.564-8.911-1.655.226-3.279.278-4.889-.02.266 1.107.519 2.175.731 3.183.527 2.504 1.288 5.164.996 7.74-.465 4.174-2.446 9.917-7.808 11.303-1.06.278-1.456-.771-.783-1.313 2.856-2.301-1.697-17.217-2.242-20.388-1.054-6.178-1.475-12.374 2.585-17.562 1.211-1.551 3.363-2.351 5.112-2.934.943-.316 2.656-.388 1.991.498-1.899 2.533-2.443 5.234-2.399 8.469.016.962.151 3.422 1.592 4.956.812.865 1.988 1.641 3.65 2.296.505.203.946.365 1.349.5.078-2.366.514-4.726 1.401-6.946 2.197-5.515 8.553-9.944 13.612-11.752C-4.058-20.77 5.175-13.886 8.4-4.646c4.221 12.087-4.15 23.535-15.434 26.51"/>
    </g>
    <g id="g23634" transform="matrix(1.25 0 0 -1.25 362.75 985.25)">
      <path id="path23636" d="M0 0c-.746 1.022-1.112-.668-4.081 1.555-.354.414-.682.85-.969 1.312-.833 1.209-1.497 2.498-2.387 3.669-1.354 1.792-3.182 3.237-5.13 4.319-3.7 2.051-7.957 2.782-12.162 2.858 9.512 6.067 17.092 15.194 7.462 24.439-1.296 1.247-4.444 2.964-7.179 3.622-2.336.564-7.527.865-6.323.119 7.684-4.75 9.498-10.34 9.874-13.577.925-7.931-6.285-12.734-11.874-15.295-.037.354-.081.708-.127 1.049-.347 2.536-.41 5.243-1.544 7.569-1.851 3.772-8.481 4.433-11.991 4.32-1.648-.055-1.177-1.189-.055-1.163 2.489-.058 3.753-3.317 3.869-4.005.157-.952.264-1.914.388-2.867.346-2.631.726-5.256 1.154-7.869-1.189-.562-2.349-1.164-3.451-1.816-1.192-.708 2.354-1.779 2.541-1.822.487-.101 1.031-.19 1.582-.247 1.007-5.264 2.412-9.891 7.31-12.986 1.659-1.053 4.225-1.336 6.137-1.516.517-.049 3.403-.231 1.842.771-5.215 3.348-6.446 10.403-7.196 16.696 2.018.812 4.18 1.328 6.836 1.328 4.442.004 7.03-4.949 9.273-8.326 3.845-5.813 8.795-5.264 14.658-3.82C-.899-1.523.729-.985 0 0"/>
    </g>
    <g id="g23638" transform="matrix(1.25 0 0 -1.25 377.12 936.25)">
      <path id="path23640" d="M0 0c3.909 1.536 5.159-1.618 5.301-2.045.49-1.473.606-3.055.385-4.618-.615-4.23-4.318-7.099-7.772-9.082-2.816-1.62-5.973-2.841-9.234-3.691C-12.779-10.909-8.123-3.025 0 0m19.266-22.38c-1.681.566-3.877 1.164-5.667.862-5.247-.888-6.838-4.824-10.488-8.049-5.827-5.161-11.527 1.389-13.572 6.862C.297-21.52 15.114-16.893 13.93-5.598 13.005 3.252 2.692 4.646-4.459 3.16-15.971.772-22.085-10.184-18.816-20.67c-1.262-.098-2.518-.152-3.757-.129-1.444.029-1.574-.48-.212-1.022 1.504-.598 3.184-.977 4.827-1.122.366-.821.787-1.632 1.274-2.433 3.83-6.267 12.84-8.7 19.731-8.585 3.532.058 6.476.777 9.016 3.345 2.715 2.742 4.314 6.005 8.436 6.8 1.704.326-.753 1.281-1.233 1.436"/>
    </g>
    <g id="g23642" transform="matrix(1.25 0 0 -1.25 111.93 1034.94)">
      <path id="path23644" d="M0 0c-.386.121-.696.496-.534 1.022l2.155 6.923c-1.192-.056-3.283-.961-4.657-1.536l-1.31-4.199c-.163-.528-.633-.659-1.022-.538-.388.121-.697.494-.534 1.019l1.199 3.852c-.089.197-.103.416-.036.629.052.176.163.334.369.441l.884 2.838c.16.508.629.657 1.023.537.387-.122.69-.515.534-1.021l-.473-1.516c1.629.645 3.685 1.367 4.703 1.053.504-.158 1.301-.683.978-1.714L1.022.537C.859.012.391-.118 0 0"/>
    </g>
    <g id="g23646" transform="matrix(1.25 0 0 -1.25 124.62 1028.19)">
      <path id="path23648" d="M0 0c-.923.257-1.883-.154-2.705-.815 1.262-.116 2.562-.224 3.771-.054C1.001-.575.768-.214 0 0m-4.049-2.32c-.384-.552-.65-1.13-.793-1.642-.285-1.019-.031-1.406.946-1.679 1.611-.446 3.337.511 4.072 1.322.742.788 1.935-.327 1.189-1.111-.969-1.062-3.28-2.45-5.692-1.78-1.808.498-2.621 1.761-2.085 3.684C-5.77-1.21-2.844 2.48.438 1.571 2.693.944 2.866-.777 2.601-1.756c-.365-1.294-5.089-.725-6.65-.564"/>
    </g>
    <g id="g23650" transform="matrix(1.25 0 0 -1.25 137.22 1031.64)">
      <path id="path23652" d="M0 0c-1.508.369-3.508-1.219-4.503-2.191-.026-.038-.051-.049-.08-.065l-.604-2.474c.075-.395.318-.685.689-.774C-2.909-5.893.238-3.748.776-1.531 1.003-.604.985-.243 0 0m-4.884-7.088c-.313.076-.577.203-.798.34l-1.216-4.983c-.126-.537-.589-.696-.985-.601-.398.098-.725.453-.599.986L-5.19 2.108c.128.535.587.698.984.599.39-.099.729-.453.6-.985l-.33-1.349c1.292.922 2.853 1.568 4.321 1.211C2.779.998 2.646-.754 2.356-1.919c-.691-2.829-4.528-5.831-7.24-5.169"/>
    </g>
    <g id="g23654" transform="matrix(1.25 0 0 -1.25 149 1037.61)">
      <path id="path23656" d="M0 0c-.697.148-1.054.139-2.246-.09-.129-.015-.274-.025-.376-.004-.478.1-.692.565-.606.981.058.282.258.529.654.634 1.22.263 2.14.565 2.266 1.166.062.3-.406.441-.905.543-.497.109-1.387.043-2.295-.118l-1.209-5.741c3.36-.062 5.796 1.507 5.883 1.945C1.264-.227.279-.059 0 0m-5.598-4.215c-.04.01-.074.018-.099.02-.494.107-.891.586-.787 1.084l1.255 5.963c-.386.142-.605.585-.518.983.05.259.25.489.599.581.09.02.175.046.262.068l.078.36c.109.517.563.715.968.631.313-.071.6-.315.648-.659.838.116 1.695.141 2.317.01 1.313-.276 2.493-.899 2.183-2.375-.081-.379-.336-.91-1.183-1.169 1.877.21 2.941-.846 2.634-2.303-.404-1.933-4.699-3.526-8.357-3.194"/>
    </g>
    <g id="g23658" transform="matrix(1.25 0 0 -1.25 162.46 1040.55)">
      <path id="path23660" d="M0 0c-1.559.111-3.965-.166-5.323-1.168-.234-.164-.808-.745-.865-1.046-.033-.2.857-.192 1.003-.196 1.765.059 3.939 1.101 5.064 1.728L0 0zm-.049-4.936c-.402.075-.756.424-.664.946l.232 1.283c-1.563-.737-3.842-1.596-5.769-1.252-.901.158-1.802.668-1.614 1.732C-7.3.961-2.585 1.885.28 1.605l.232 1.284c.05.3.033.302-.287.362l-.021.001c-1.808.321-3.126-.231-4.591-1.131-.207-.127-.4-.155-.58-.125-.418.074-.73.543-.651.983.036.203.152.388.385.533 1.808 1.108 3.49 1.74 5.718 1.343 1.384-.24 1.829-1.109 1.619-2.292L.896-4.274c-.093-.524-.544-.732-.945-.662"/>
    </g>
    <g id="g23662" transform="matrix(1.25 0 0 -1.25 174.43 1038.49)">
      <path id="path23664" d="M0 0c-1.234-.151-3.286-.51-4.166-1.187-.181-.137-.264-.27-.285-.393-.028-.219.231-.404.756-.479 1.311-.189 2.24-.158 3.426.204L0 0zm1.178-3.24L.596-7.289c-.082-.525-.525-.748-.927-.69-.403.058-.765.398-.692.922l.433 2.983-6.035-2.85c-.173-.079-.341-.097-.485-.075-.442.065-.744.54-.677.96.028.226.159.451.472.592l4.251 1.937c-.192-.074-.826-.025-1.07.012-1.287.185-2.218.853-2.058 1.967.364 2.519 5.03 3.164 6.95 3.214.121.001.202-.031.307-.025.399-.056.766-.397.688-.924l-.356-2.439c.306-.167.487-.483.443-.803-.04-.262-.22-.527-.574-.681l-.088-.051z"/>
    </g>
    <g id="g23666" transform="matrix(1.25 0 0 -1.25 192.5 1040.41)">
      <path id="path23668" d="M0 0c-1.946.193-4.194-1.898-4.434-4.289-.101-1.056.323-1.938 1.604-2.063 1.701-.167 3.939 1.559 4.161 3.831C1.487-.941 1.055-.1 0 0m-2.992-7.973c-2.453.241-3.223 2.2-3.064 3.839.302 3.042 3.134 6.06 6.22 5.757 2.548-.252 2.954-2.602 2.788-4.304-.304-3.082-3.265-5.553-5.944-5.292"/>
    </g>
    <g id="g23670" transform="matrix(1.25 0 0 -1.25 204.97 1041.28)">
      <path id="path23672" d="M0 0c-.896.059-2.858-.951-3.492-1.522l-.181-2.744c-.016-.224-.055-.486-.068-.73-.045-.692.028-1.393.882-1.447 1.582-.108 3.954 2.325 4.115 4.746C1.324-.66.873-.061 0 0m-2.97-8.07c-2.479.166-2.453 2.125-2.33 3.913l.183 2.746c.427 6.339 5.022 4.561 6.31 6.048.044.056.066.115.122.317.112.442.469.621.816.597.43-.026.814-.338.784-.826-.009-.059-.009-.123-.035-.184-.664-2.566-4.162-1.758-5.657-3.334-.085-.097-.178-.273-.278-.512 1.016.544 2.251.99 3.163.93 2.056-.139 2.881-1.807 2.778-3.432C2.687-4.734-.126-8.261-2.97-8.07"/>
    </g>
    <g id="g23674" transform="matrix(1.25 0 0 -1.25 218.23 1052.16)">
      <path id="path23676" d="M0 0c-.41.016-.806.297-.783.847l.007.18C-1.736.453-2.92-.011-4.26.042c-1.119.042-2.215.675-2.164 2.08l.266 6.858c.019.551.438.799.847.784.407-.015.801-.295.782-.846l-.267-6.857c-.004-.181-.015-.368.597-.391 1.287-.051 2.427.578 3.502 1.351l.22 5.741c.018.551.439.801.842.783.406-.014.81-.296.781-.842L.842.783C.821.234.406-.016 0 0"/>
    </g>
    <g id="g23678" transform="matrix(1.25 0 0 -1.25 236.58 1052.36)">
      <path id="path23680" d="M0 0c-.407.002-.811.269-.811.82l.022 7.188c-1.224-.462-2.895-1.762-3.919-2.596l-.017-4.58c-.002-.549-.41-.814-.816-.811-.406 0-.811.269-.811.815l.026 7.191c-1.165-.404-2.633-1.561-3.614-2.349L-9.963.847c0-.548-.403-.812-.813-.81-.405 0-.811.267-.811.817l.028 8.125c0 .532.409.814.816.813.409 0 .815-.288.815-.816l-.01-1.222c1.268.953 2.906 2.025 4.085 2.021.835-.002 1.158-.716 1.158-1.346l-.006-.937C-3.375 8.505-1.52 9.764-.313 9.759.539 9.756.844 9.041.844 8.41L.818.814C.813.264.408 0 0 0"/>
    </g>
    <g id="g23682" transform="matrix(1.25 0 0 -1.25 246.05 1042.1)">
      <path id="path23684" d="M0 0c-.957-.028-1.749-.707-2.336-1.582 1.238.264 2.514.552 3.614 1.075C1.128-.247.795.026 0 0m-3.176-3.423c-.201-.637-.284-1.269-.265-1.802.033-1.058.386-1.355 1.408-1.321C-.363-6.493 1-5.063 1.454-4.07c.48.971 1.946.265 1.471-.706C2.313-6.079.527-8.095-1.982-8.177c-1.872-.059-3.031.905-3.089 2.9-.074 2.404 1.617 6.8 5.021 6.909C2.29 1.706 2.969.118 3.004-.904c.043-1.343-4.641-2.204-6.18-2.519"/>
    </g>
    <g id="g23686" transform="matrix(1.25 0 0 -1.25 262.42 1050.34)">
      <path id="path23688" d="M0 0c.026-.469-.389-.8-.813-.823-.306-.02-.594.105-.763.485l-2.722 6.17C-5.461 3.619-7.355 1.14-7.267-.387c.034-.548-.362-.836-.765-.858-.411-.025-.829.214-.862.764-.167 2.888 2.939 5.581 3.675 8.336l-.047.143c-.047.118-.077.219-.085.32-.022.469.386.819.792.844.3.016.62-.129.785-.506L-.082.319C-.038.199-.008.1 0 0"/>
    </g>
    <g id="g23690" transform="matrix(1.25 0 0 -1.25 270.25 1044.36)">
      <path id="path23692" d="M0 0c-.834-.072-2.36-.856-3.424-1.581l.172-2.009C-.482-2.742 1.1-.723 1.064-.277 1.025.188.303.026 0 0m-3.633-5.379c-.037-.006-.082-.011-.12-.012-.486-.043-1.007.323-1.054.808L-5-2.285c-.298.115-.507.426-.534.729-.018.223.064.454.293.658l.114.092-.365 4.324c-.049.527.331.849.741.882.404.034.833-.214.877-.744l.296-3.41C-2.47.912-1.119 1.54-.141 1.623c1.362.117 2.692-.139 2.829-1.763.16-1.889-3.067-4.536-6.321-5.239"/>
    </g>
    <g id="g23694" transform="matrix(1.25 0 0 -1.25 293.59 1047.92)">
      <path id="path23696" d="M0 0c-.402-.051-.842.158-.911.704l-.604 4.586C-2.014 4.258-3.769 1.174-3.712.28c.049-.569-.3-.902-.678-.951-.388-.051-.806.183-.917.724-.274 1.133-2.089 3.299-2.853 4.229l.579-4.444c.065-.545-.3-.859-.704-.912-.403-.053-.844.157-.909.703l-1.047 8.043c-.072.562.293.898.701.952.4.05.84-.179.917-.742.091-.708 3.298-4.507 3.878-5.396.49 1.114 2.908 5.328 2.786 6.259-.073.564.298.901.702.953.402.054.842-.178.917-.744L.702.912C.772.367.403.055 0 0"/>
    </g>
    <g id="g23698" transform="matrix(1.25 0 0 -1.25 304.46 1040.09)">
      <path id="path23700" d="M0 0c-1.499-.404-3.683-1.457-4.633-2.846-.171-.234-.525-.972-.479-1.274.033-.202.87.1 1.009.14C-2.45-3.344-.739-1.645.114-.68L0 0zm1.58-4.675C1.176-4.742.729-4.523.645-4L.438-2.714C-.785-3.922-2.665-5.48-4.597-5.793c-.908-.143-1.922.045-2.095 1.108C-7.205-1.484-3.054.934-.254 1.609L-.46 2.897c-.051.302-.068.298-.395.246l-.017-.001C-2.687 2.848-3.747 1.894-4.833.565c-.155-.192-.325-.28-.507-.309-.422-.067-.87.274-.936.717-.037.201.009.416.188.63C-4.746 3.24-3.363 4.391-1.133 4.75c1.389.223 2.095-.447 2.287-1.638l1.103-6.854c.081-.523-.277-.869-.677-.933"/>
    </g>
    <g id="g23702" transform="matrix(1.25 0 0 -1.25 319.88 1042.54)">
      <path id="path23704" d="M0 0c.088-.457-.281-.836-.697-.914-.301-.057-.613.029-.822.383L-5.002 5.24C-5.87 2.9-7.438.199-7.151-1.297c.097-.543-.249-.879-.651-.95-.4-.077-.851.108-.953.648-.526 2.843 2.206 5.906 2.592 8.734l-.07.131c-.066.112-.101.21-.12.308-.085.461.273.861.672.938.303.051.633-.051.847-.405L-.122.313C-.06.199-.015.104 0 0"/>
    </g>
    <g id="g23706" transform="matrix(1.25 0 0 -1.25 333.3 1040.58)">
      <path id="path23708" d="M0 0c-.396-.084-.851.105-.966.623l-1.729 7.943c-.117.516.221.883.623.971.394.087.854-.105.969-.623L.625.969C.739.449.401.087 0 0m-5.136 3.969c-.815-.178-2.231-1.155-3.188-2.012l.428-1.969c2.636 1.201 3.948 3.405 3.855 3.843-.097.457-.801.204-1.095.138m-2.905-5.806c-.042-.007-.083-.018-.12-.026-.475-.102-1.041.189-1.145.666L-9.8 1.055c-.306.08-.554.355-.62.655-.043.223.004.462.204.693l.105.106-.929 4.239c-.108.517.227.885.624.971.401.086.856-.108.974-.623l.726-3.344c1.014.807 2.279 1.603 3.236 1.809 1.333.289 2.684.209 3.032-1.383.404-1.852-2.458-4.893-5.593-6.015"/>
    </g>
    <g id="g23710" transform="matrix(1.25 0 0 -1.25 350.97 1036.17)">
      <path id="path23712" d="M0 0c-.398-.101-.858.054-.994.59l-.068.252C-1.884.023-3.067-.912-4.216-1.205c-.906-.232-1.508.224-1.844.706-.83-.778-2.062-1.706-3.271-2.014-1.337-.342-1.984.794-2.119 1.326l-1.803 7.007c-.135.531.201.887.592.99.391.1.851-.056.99-.587l1.795-7.006c.016-.06.096-.123.148-.153 1.14.295 2.514 1.508 3.098 2.162l-1.508 5.901c-.137.535.194.89.589.99.393.1.855-.054.989-.586L-4.767.524c.02-.057.116-.118.143-.151 1.11.285 2.488 1.625 3.081 2.344l-1.464 5.725c-.139.532.189.89.587.99.392.101.857-.055.987-.584L.582.994C.722.458.389.102 0 0"/>
    </g>
    <g id="g23714" transform="matrix(1.25 0 0 -1.25 360.87 1026.98)">
      <path id="path23716" d="M0 0c-1.436-.59-3.476-1.905-4.247-3.403-.138-.25-.399-1.032-.315-1.324.058-.192.854.209.985.27 1.56.835 3.041 2.731 3.771 3.792L0 0zm2.149-4.446c-.394-.111-.863.048-1.009.553l-.367 1.25C-.299-3.991-1.964-5.772-3.839-6.319c-.878-.256-1.92-.199-2.217.838C-6.968-2.37-3.146.545-.455 1.565l-.364 1.252c-.086.29-.108.287-.414.194l-.022-.004C-3.013 2.494-3.95 1.415-4.868-.042c-.128-.205-.29-.317-.464-.367-.407-.121-.89.164-1.022.594-.053.195-.032.414.108.646 1.134 1.793 2.367 3.106 4.534 3.74C-.365 4.966.42 4.386.757 3.232L2.7-3.435c.149-.505-.16-.897-.551-1.011"/>
    </g>
    <g id="g23718" transform="matrix(1.25 0 0 -1.25 468.65 969.27)">
      <path id="path23720" d="M0 0c-.733-3.105-2.991-4.601-5.87-5.556-1.797-.595-4.087-.504-5.94-.384-1.27.078-2.521.314-3.773.547-1.203.226-3.221.966-4.456 1.571-1.058.52-2.163 1.135-3.282 1.805 1.082.821 2.176 1.641 3.275 2.463C-14.634 4.481-8.528 9.944-2.63 6.599-.54 5.412.667 2.803 0 0m-359.889-7.087c-4.159.559-7.083 3.988-6.74 6.895 1.08 9.171 10.778 6.18 12.299 5.414 4.665-2.358 8.612-5.201 12.673-8.106-5.872-3.308-12.965-4.914-18.232-4.203M7.464-.995c-.583 4.31-9.214 13.32-24.991 11.232-5.006-.662-9.505-3.854-13.71-7.218-2.697 1.705-5.34 3.25-7.734 4.138-4.686 1.744-8.924 2.822-14.141.678-.418-.168-.546-.539.194-.678 5.128-.961 5.761-2.963 7.378-2.731 3.998.577 8.369-1.129 12.156-3.15-1.466-1.203-2.9-2.375-4.304-3.408-10.102-7.412-22.275-12.372-33.774-16.972-34.412-13.784-71.242-20.047-108.01-21.391-40.214-1.469-81.619 2.349-119.435 17.398-11.206 4.455-21.97 9.901-32.281 16.252-.416.258-.832.523-1.247.785 3.541 1.623 8.553 4.618 7.387 8.127-.508 1.528-3.622 2.756-4.874 3.329-.241.111-3.841 1.656-3.456.485.554-1.689-1.743-3.819-2.943-4.928-.954-.883-2.009-1.7-3.121-2.457-4.137 2.745-8.265 5.5-12.563 7.95-2.982 1.7-6.051 3.274-9.346 4.198-5.079 1.423-13.026-1.444-13.544-7.592-.624-7.44 11.263-12.553 16.634-13.387 8.387-1.302 15.873.492 22.935 3.091.451-.292.895-.589 1.356-.881 10.786-6.741 22.067-12.616 33.74-17.524 36.073-15.164 75.365-20.205 114.062-20.167 38.628.042 77.558 5.463 114.135 18.615 10.346 3.718 20.448 8.126 30.304 13.054 5.896 2.945 11.148 6.699 16.376 10.61 2.692-1.648 5.033-3.012 7.853-4.521 5.781-3.097 16.828-5.029 22.432-.582C7.109-6.909 7.813-3.603 7.464-.995"/>
    </g>
    <g id="g23722" transform="matrix(1.25 0 0 -1.25 235.19 822.44)">
      <path id="path23724" d="M0 0c2.655 2.604 3.567.075 3.653-.553.618-4.539-.344-10.474-2.319-14.463-.941-1.905-1.961-3.783-3.012-5.64C-3.757-13.865-4.728-4.639 0 0m-84.179-80.486c24.61-2.887 44.131 6.683 58.46 18.16 10.07 8.064 17.853 17.375 24.98 28.209C16.553-62.186 46.54-82.35 79.355-85.199c1.773-.155.082 4.088-.23 4.489-1.051 1.372-4.813 4.963-7.905 4.816-31.305-1.491-54.35 18.131-68.831 45.525-.109.211-.226.428-.335.646 1.861 3.041 3.63 6.129 5.303 9.244C10.573-14.484 13.503-6.064 9.129.258 5.482 5.534-1.637 6.415-6.208 2.083c-4.744-4.499-4.404-13.058-2.816-18.848.912-3.324 2.347-6.516 3.92-9.592-2.811-4.44-5.835-8.747-8.946-12.931-7.695-10.356-16.287-19.198-27.449-25.728-11.098-6.488-26.293-10.488-42.128-9.066-.157.014-.74-.184-.808-.499-.184-.849.01-1.579-.153-2.681-.112-1.11-.351-1.597-.405-2.105-.145-.997.482-1.078.814-1.119"/>
    </g>
  </g>
</svg>
