<?xml version="1.0" encoding="UTF-8" standalone="no"?>
<svg xmlns="http://www.w3.org/2000/svg" id="svg8987" width="99.34375" height="100.11753" viewBox="0 0 99.34375 100.11753">
  <g id="layer1" transform="translate(0 -952.25)">
    <path id="path1330" d="M17.445 1002.3034c0-25.43748 19.41625-46.33248 44.23875-48.68623-3.73125-.88875-7.6225-1.3725-11.625-1.3725C22.41125 952.24467 0 974.65717 0 1002.3034c0 27.6463 22.41125 50.0588 50.05875 50.0588 4.0025 0 7.89375-.4838 11.625-1.3713-24.8225-2.355-44.23875-23.2525-44.23875-48.6875"/>
    <path id="path1334" d="M56.39038 979.65692c2.00875-2.835 2.36125-6.98125 4.02375-10.4225.89 3.2025 2.055 6.43625 3.485 9.02625-3.45875-2.87125-6.665-2.26625-10.15-3.5975 4.0525-1.41375 8.26625-1.74625 12.2675-3.21-2.57125 1.23-4.8875 4.615-7.9225 6.64125l-1.70375 1.5625z"/>
    <path id="path1338" d="M73.71213 998.44602c2.22875-1.8825 3.3875-5.17875 5.46-7.6275.05 2.79125.32 5.665.93875 8.07125-2.2075-3.06125-4.94125-3.24375-7.4975-5.0575 3.59125-.29875 7.08875.3175 10.64875-.03-2.35.4575-4.94375 2.72375-7.83625 3.73125l-1.71375.9125z"/>
    <path id="path1342" d="M74.39213 975.51632c2.93375-2.475 4.45625-6.81125 7.18375-10.03.0638 3.66875.42 7.4475 1.2325 10.6125-2.90375-4.025-6.49625-4.26625-9.8575-6.65125 4.72375-.39125 9.32.41875 14.00125-.04-3.09.60375-6.50125 3.5825-10.30375 4.90875l-2.25625 1.2z"/>
    <path id="path1346" d="M40.8545 1001.5075c1.70125-2.40247 1.9975-5.91498 3.405-8.82998.75625 2.71125 1.74375 5.45125 2.95625 7.64748-2.93-2.43248-5.6475-1.91998-8.6025-3.04873 3.43625-1.1975 7.00375-1.4775 10.395-2.7175-2.18 1.04-4.14125 3.90625-6.7125 5.62503l-1.44125 1.3237z"/>
    <path id="path1350" d="M56.86275 1019.5666c1.0325-.8737 1.57-2.4025 2.53-3.535.025 1.2938.14875 2.6238.435 3.74-1.02125-1.4187-2.28875-1.5037-3.47375-2.3462 1.665-.1363 3.28625.1487 4.93625-.014-1.08875.2125-2.2925 1.2637-3.635 1.7312l-.7925.4238z"/>
    <path id="path1354" d="M67.86013 1042.6769c2.69125-2.2725 4.09375-6.255 6.59625-9.2137.0612 3.3712.38625 6.8437 1.13625 9.7512-2.66875-3.6987-5.97125-3.9187-9.06-6.1112 4.34-.36 8.56375.3837 12.865-.036-2.83875.5537-5.97375 3.29-9.4675 4.5087l-2.07 1.1013z"/>
    <path id="path1358" d="M89.79125 1011.361c2.23-1.88 3.38875-5.1787 5.46125-7.6275.05 2.7913.32 5.665.9375 8.0713-2.20625-3.0613-4.94-3.2438-7.49625-5.0575 3.5925-.2988 7.08875.3162 10.65-.03-2.35125.4587-4.945 2.725-7.83875 3.7325l-1.71375.9112z"/>
  </g>
</svg>
