<?xml version="1.0" encoding="iso-8859-1"?>
<!-- Generator: Adobe Illustrator 19.0.0, SVG Export Plug-In . SVG Version: 6.00 Build 0)  -->
<svg version="1.1" id="Capa_1" xmlns="http://www.w3.org/2000/svg" xmlns:xlink="http://www.w3.org/1999/xlink" x="0px" y="0px"
	 viewBox="0 0 508.968 508.968" style="enable-background:new 0 0 508.968 508.968;" xml:space="preserve">
<g>
	<path d="M483.571,111.957L379.667,16.045c-0.282-0.269-0.588-0.519-0.918-0.747c-0.001-0.001-0.003-0.002-0.005-0.004
		c-0.002-0.001-0.005-0.003-0.007-0.005c-0.813-0.559-1.697-0.936-2.604-1.14L321.417,0.47c-4.222-1.056-8.547-0.319-12.175,2.073
		c-3.664,2.417-6.171,6.32-6.878,10.708c-3.802,23.592-23.937,40.715-47.878,40.716c-0.001,0-0.002,0-0.003,0
		c-23.941-0.001-44.077-17.124-47.878-40.716c-0.707-4.389-3.214-8.292-6.878-10.708c-3.628-2.393-7.951-3.129-12.175-2.073
		l-54.716,13.679c-0.906,0.204-1.79,0.581-2.602,1.14c-0.002,0.002-0.005,0.004-0.007,0.005c-0.002,0.001-0.004,0.002-0.005,0.004
		c-0.331,0.229-0.637,0.478-0.918,0.747L25.397,111.957c-2.567,2.37-3.158,6.198-1.425,9.231l32,56c1,1.751,2.664,3.025,4.615,3.536
		c1.951,0.509,4.025,0.212,5.755-0.825l67.91-40.746l-5.252,99.783c-1.367,25.965,0.703,52.022,6.151,77.447l35.383,165.122
		c3.41,15.913,17.697,27.463,33.972,27.463c18.577,0,33.82-14.535,34.704-33.09l6.003-126.071c0.236-4.956,4.308-8.839,9.27-8.839
		s9.034,3.883,9.27,8.839l6.003,126.071c0.883,18.555,16.127,33.09,34.704,33.09c16.274,0,30.562-11.55,33.972-27.463
		l35.383-165.122c5.448-25.425,7.518-51.482,6.151-77.447l-5.252-99.783l67.91,40.746c1.176,0.706,2.511,1.069,3.859,1.069
		c0.635,0,1.272-0.081,1.896-0.244c1.951-0.51,3.615-1.784,4.615-3.536l32-56C486.729,118.155,486.138,114.326,483.571,111.957z
		 M110.989,53.362c-0.027,1.955,0.7,3.917,2.192,5.409l2.697,2.697l-2.697,2.697c-2.929,2.929-2.929,7.677,0,10.606
		c1.464,1.464,3.384,2.197,5.303,2.197s3.839-0.732,5.303-2.197l2.697-2.697l2.697,2.697c1.464,1.464,3.384,2.197,5.303,2.197
		s3.839-0.732,5.303-2.197c2.929-2.929,2.929-7.677,0-10.606l-2.697-2.697l2.697-2.697c2.929-2.929,2.929-7.677,0-10.606
		c-2.929-2.929-7.678-2.929-10.606,0l-2.697,2.697l-2.697-2.697c-1.339-1.34-3.06-2.059-4.813-2.173l14.049-12.969
		c15.338,25.4,16.882,46.51,14.298,61.652c-0.774,0.36-1.502,0.851-2.141,1.49c-2.646,2.646-2.893,6.773-0.758,9.706
		c-2.548,7.212-5.646,11.981-7.032,13.907l-63.744,38.247l-0.556-0.556l2.697-2.697c2.929-2.929,2.929-7.677,0-10.606
		c-2.929-2.929-7.678-2.929-10.606,0l-2.697,2.697l-2.697-2.697c-1.795-1.795-4.273-2.485-6.598-2.08L39.957,118.93L110.989,53.362z
		 M147.614,301.731c-0.036-0.212-0.073-0.424-0.109-0.637l0.373,0.373L147.614,301.731z M145.888,203.479l1.989,1.989l-2.21,2.21
		L145.888,203.479z M177.684,443.274l2.194,2.193l-1.419,1.419L177.684,443.274z M304.46,493.968c-2.349,0-4.596-0.429-6.688-1.182
		l2.015-2.015c2.929-2.929,2.929-7.677,0-10.606c-2.929-2.929-7.678-2.929-10.606,0l-2.547,2.547
		c-1.094-2.301-1.765-4.847-1.893-7.548l-2.998-62.948c0.738-0.356,1.432-0.833,2.044-1.445l2.697-2.697l2.697,2.697
		c1.464,1.464,3.384,2.197,5.303,2.197s3.839-0.732,5.303-2.197c2.929-2.929,2.929-7.677,0-10.606l-2.697-2.697l2.697-2.697
		c2.929-2.929,2.929-7.677,0-10.606c-2.929-2.929-7.678-2.929-10.606,0l-2.697,2.697l-2.697-2.697
		c-0.995-0.995-2.201-1.644-3.474-1.962l-1.577-33.109c-0.618-12.967-11.271-23.125-24.253-23.125s-23.635,10.158-24.253,23.125
		l-1.577,33.109c-1.272,0.319-2.479,0.967-3.474,1.962l-2.697,2.697l-2.697-2.697c-2.929-2.929-7.678-2.929-10.606,0
		c-2.929,2.929-2.929,7.677,0,10.606l2.697,2.697l-2.697,2.697c-2.929,2.929-2.929,7.677,0,10.606
		c1.464,1.464,3.384,2.197,5.303,2.197s3.839-0.732,5.303-2.197l2.697-2.697l2.697,2.697c0.612,0.612,1.307,1.089,2.044,1.445
		l-2.998,62.948c-0.129,2.701-0.799,5.247-1.893,7.548l-2.547-2.547c-2.929-2.929-7.678-2.929-10.606,0
		c-2.929,2.929-2.929,7.677,0,10.606l2.015,2.015c-2.093,0.752-4.339,1.182-6.688,1.182c-9.248,0-17.367-6.563-19.305-15.606
		l-3.744-17.472c0.34,0.047,0.682,0.079,1.025,0.079c1.919,0,3.839-0.732,5.303-2.197l2.697-2.697l2.697,2.697
		c1.464,1.465,3.384,2.197,5.303,2.197s3.839-0.732,5.303-2.197c2.929-2.929,2.929-7.677,0-10.606l-2.697-2.697l2.697-2.697
		c2.929-2.929,2.929-7.677,0-10.606c-2.929-2.929-7.678-2.929-10.606,0l-2.697,2.697l-2.697-2.697
		c-2.929-2.929-7.678-2.929-10.606,0c-0.61,0.61-1.085,1.301-1.441,2.036l-4.857-22.668c0.315-0.229,0.621-0.478,0.905-0.762
		c2.929-2.929,2.929-7.677,0-10.606l-2.697-2.697l2.697-2.697c2.929-2.929,2.929-7.677,0-10.606c-1.948-1.948-4.7-2.593-7.187-1.949
		l-13.983-65.254c1.875-0.033,3.74-0.76,5.17-2.19l2.697-2.697l2.697,2.697c1.464,1.464,3.384,2.197,5.303,2.197
		s3.839-0.732,5.303-2.197c2.929-2.929,2.929-7.677,0-10.606l-2.697-2.697l2.697-2.697c2.929-2.929,2.929-7.677,0-10.606
		c-2.929-2.929-7.678-2.929-10.606,0l-2.697,2.697l-2.697-2.697c-2.797-2.797-7.251-2.917-10.197-0.37
		c-1.906-15.934-2.454-32.02-1.609-48.071l1.108-21.054c0.032,0.033,0.059,0.068,0.092,0.101c1.464,1.464,3.384,2.197,5.303,2.197
		s3.839-0.732,5.303-2.197l2.697-2.697l2.697,2.697c1.464,1.464,3.384,2.197,5.303,2.197s3.839-0.732,5.303-2.197
		c2.929-2.929,2.929-7.677,0-10.606l-2.697-2.697l2.697-2.697c2.929-2.929,2.929-7.677,0-10.606c-2.929-2.929-7.678-2.929-10.606,0
		l-2.697,2.697l-2.697-2.697c-2.51-2.511-6.354-2.862-9.247-1.069l3.316-63.001c0.587-0.85,1.303-1.944,2.099-3.272
		c1.404-0.28,2.744-0.962,3.832-2.05l2.697-2.697l2.697,2.697c1.464,1.464,3.384,2.197,5.303,2.197s3.839-0.732,5.303-2.197
		c2.929-2.929,2.929-7.677,0-10.606l-2.697-2.697l2.697-2.697c2.929-2.929,2.929-7.677,0-10.606
		c-2.572-2.572-6.546-2.884-9.46-0.939c2.417-16.434,0.973-40.529-15.904-69.012l44.765-11.191c0.106-0.026,0.175-0.026,0.279,0.043
		c0.08,0.052,0.271,0.213,0.329,0.573c4.152,25.767,23.178,45.629,47.557,51.523c-0.836,2.593-0.231,5.55,1.828,7.609
		c1.464,1.464,3.384,2.197,5.303,2.197s3.839-0.732,5.303-2.197l2.697-2.697l2.697,2.697c1.464,1.464,3.384,2.197,5.303,2.197
		s3.839-0.732,5.303-2.197c2.059-2.059,2.665-5.016,1.828-7.609c24.38-5.894,43.405-25.756,47.557-51.523
		c0.058-0.36,0.249-0.521,0.329-0.573c0.105-0.07,0.173-0.069,0.279-0.043l44.765,11.191
		c-16.877,28.482-18.321,52.578-15.904,69.012c-2.914-1.945-6.888-1.633-9.46,0.939c-2.929,2.929-2.929,7.677,0,10.606l2.697,2.697
		l-2.697,2.697c-2.929,2.929-2.929,7.677,0,10.606c1.464,1.464,3.384,2.197,5.303,2.197s3.839-0.732,5.303-2.197l2.697-2.697
		l2.697,2.697c1.088,1.088,2.428,1.771,3.832,2.05c0.796,1.329,1.512,2.423,2.099,3.272l3.316,63.001
		c-2.892-1.793-6.737-1.441-9.247,1.069l-2.697,2.697l-2.697-2.697c-2.929-2.929-7.678-2.929-10.606,0
		c-2.929,2.929-2.929,7.677,0,10.606l2.697,2.697l-2.697,2.697c-2.929,2.929-2.929,7.677,0,10.606
		c1.464,1.464,3.384,2.197,5.303,2.197s3.839-0.732,5.303-2.197l2.697-2.697l2.697,2.697c1.464,1.464,3.384,2.197,5.303,2.197
		s3.839-0.732,5.303-2.197c0.033-0.033,0.06-0.068,0.092-0.101l1.108,21.054c0.845,16.051,0.297,32.137-1.609,48.071
		c-2.946-2.546-7.4-2.427-10.197,0.37l-2.697,2.697l-2.697-2.697c-2.929-2.929-7.678-2.929-10.606,0
		c-2.929,2.929-2.929,7.677,0,10.606l2.697,2.697l-2.697,2.697c-2.929,2.929-2.929,7.677,0,10.606
		c1.464,1.464,3.384,2.197,5.303,2.197s3.839-0.732,5.303-2.197l2.697-2.697l2.697,2.697c1.43,1.431,3.295,2.157,5.17,2.19
		l-13.983,65.254c-2.487-0.644-5.239,0.001-7.187,1.949c-2.929,2.929-2.929,7.677,0,10.606l2.697,2.697l-2.697,2.697
		c-2.929,2.929-2.929,7.677,0,10.606c0.284,0.284,0.59,0.532,0.905,0.761l-4.857,22.668c-0.356-0.734-0.831-1.426-1.441-2.036
		c-2.929-2.929-7.678-2.929-10.606,0l-2.697,2.697l-2.697-2.697c-2.929-2.929-7.678-2.929-10.606,0
		c-2.929,2.929-2.929,7.677,0,10.606l2.697,2.697l-2.697,2.697c-2.929,2.929-2.929,7.677,0,10.606
		c1.464,1.465,3.384,2.197,5.303,2.197s3.839-0.732,5.303-2.197l2.697-2.697l2.697,2.697c1.464,1.465,3.384,2.197,5.303,2.197
		c0.343,0,0.685-0.032,1.025-0.079l-3.744,17.472C321.827,487.404,313.708,493.968,304.46,493.968z M363.3,207.678l-2.21-2.21
		l1.989-1.989L363.3,207.678z M361.09,301.468l0.373-0.373c-0.036,0.212-0.073,0.424-0.109,0.637L361.09,301.468z M330.51,446.887
		l-1.419-1.419l2.193-2.193L330.51,446.887z M455.778,142.085c-2.324-0.405-4.803,0.284-6.598,2.08l-2.697,2.697l-2.697-2.697
		c-2.929-2.929-7.678-2.929-10.606,0c-2.929,2.929-2.929,7.677,0,10.606l2.697,2.697l-0.556,0.556l-63.74-38.244
		c-1.4-1.948-4.491-6.718-7.034-13.914c2.132-2.933,1.884-7.057-0.761-9.702c-0.638-0.638-1.365-1.128-2.139-1.489
		c-2.586-15.146-1.041-36.255,14.296-61.653l14.049,12.969c-1.753,0.114-3.473,0.833-4.813,2.173l-2.697,2.697l-2.697-2.697
		c-2.929-2.929-7.678-2.929-10.606,0c-2.929,2.929-2.929,7.677,0,10.606l2.697,2.697l-2.697,2.697
		c-2.929,2.929-2.929,7.677,0,10.606c1.464,1.464,3.384,2.197,5.303,2.197s3.839-0.732,5.303-2.197l2.697-2.697l2.697,2.697
		c1.464,1.464,3.384,2.197,5.303,2.197s3.839-0.732,5.303-2.197c2.929-2.929,2.929-7.677,0-10.606l-2.697-2.697l2.697-2.697
		c1.491-1.491,2.219-3.454,2.192-5.409l71.031,65.567L455.778,142.085z"/>
	<path d="M267.787,144.164c-2.929-2.929-7.678-2.929-10.606,0l-2.697,2.697l-2.697-2.697c-2.929-2.929-7.678-2.929-10.606,0
		c-2.929,2.929-2.929,7.677,0,10.606l2.697,2.697l-2.697,2.697c-2.929,2.929-2.929,7.677,0,10.606
		c1.464,1.464,3.384,2.197,5.303,2.197s3.839-0.732,5.303-2.197l2.697-2.697l2.697,2.697c1.464,1.464,3.384,2.197,5.303,2.197
		s3.839-0.732,5.303-2.197c2.929-2.929,2.929-7.677,0-10.606l-2.697-2.697l2.697-2.697
		C270.716,151.842,270.716,147.094,267.787,144.164z"/>
	<path d="M305.181,170.771c1.464,1.464,3.384,2.197,5.303,2.197s3.839-0.732,5.303-2.197l2.697-2.697l2.697,2.697
		c1.464,1.464,3.384,2.197,5.303,2.197s3.839-0.732,5.303-2.197c2.929-2.929,2.929-7.677,0-10.606l-2.697-2.697l2.697-2.697
		c2.929-2.929,2.929-7.677,0-10.606c-2.929-2.929-7.678-2.929-10.606,0l-2.697,2.697l-2.697-2.697
		c-2.929-2.929-7.678-2.929-10.606,0c-2.929,2.929-2.929,7.677,0,10.606l2.697,2.697l-2.697,2.697
		C302.251,163.094,302.251,167.842,305.181,170.771z"/>
	<path d="M203.787,144.164c-2.929-2.929-7.678-2.929-10.606,0l-2.697,2.697l-2.697-2.697c-2.929-2.929-7.678-2.929-10.606,0
		c-2.929,2.929-2.929,7.677,0,10.606l2.697,2.697l-2.697,2.697c-2.929,2.929-2.929,7.677,0,10.606
		c1.464,1.464,3.384,2.197,5.303,2.197s3.839-0.732,5.303-2.197l2.697-2.697l2.697,2.697c1.464,1.464,3.384,2.197,5.303,2.197
		s3.839-0.732,5.303-2.197c2.929-2.929,2.929-7.677,0-10.606l-2.697-2.697l2.697-2.697
		C206.716,151.842,206.716,147.094,203.787,144.164z"/>
	<path d="M305.181,74.771c1.464,1.464,3.384,2.197,5.303,2.197s3.839-0.732,5.303-2.197l2.697-2.697l2.697,2.697
		c1.464,1.464,3.384,2.197,5.303,2.197s3.839-0.732,5.303-2.197c2.929-2.929,2.929-7.677,0-10.606l-2.697-2.697l2.697-2.697
		c2.929-2.929,2.929-7.677,0-10.606c-2.929-2.929-7.678-2.929-10.606,0l-2.697,2.697l-2.697-2.697
		c-2.929-2.929-7.678-2.929-10.606,0c-2.929,2.929-2.929,7.677,0,10.606l2.697,2.697l-2.697,2.697
		C302.251,67.094,302.251,71.842,305.181,74.771z"/>
	<path d="M203.787,48.164c-2.929-2.929-7.678-2.929-10.606,0l-2.697,2.697l-2.697-2.697c-2.929-2.929-7.678-2.929-10.606,0
		c-2.929,2.929-2.929,7.677,0,10.606l2.697,2.697l-2.697,2.697c-2.929,2.929-2.929,7.677,0,10.606
		c1.464,1.464,3.384,2.197,5.303,2.197s3.839-0.732,5.303-2.197l2.697-2.697l2.697,2.697c1.464,1.464,3.384,2.197,5.303,2.197
		s3.839-0.732,5.303-2.197c2.929-2.929,2.929-7.677,0-10.606l-2.697-2.697l2.697-2.697
		C206.716,55.842,206.716,51.094,203.787,48.164z"/>
	<path d="M267.787,240.164c-2.929-2.929-7.678-2.929-10.606,0l-2.697,2.697l-2.697-2.697c-2.929-2.929-7.678-2.929-10.606,0
		c-2.929,2.929-2.929,7.677,0,10.606l2.697,2.697l-2.697,2.697c-2.929,2.929-2.929,7.677,0,10.606
		c1.464,1.464,3.384,2.197,5.303,2.197s3.839-0.732,5.303-2.197l2.697-2.697l2.697,2.697c1.464,1.464,3.384,2.197,5.303,2.197
		s3.839-0.732,5.303-2.197c2.929-2.929,2.929-7.677,0-10.606l-2.697-2.697l2.697-2.697
		C270.716,247.842,270.716,243.094,267.787,240.164z"/>
	<path d="M305.181,266.771c1.464,1.464,3.384,2.197,5.303,2.197s3.839-0.732,5.303-2.197l2.697-2.697l2.697,2.697
		c1.464,1.464,3.384,2.197,5.303,2.197s3.839-0.732,5.303-2.197c2.929-2.929,2.929-7.677,0-10.606l-2.697-2.697l2.697-2.697
		c2.929-2.929,2.929-7.677,0-10.606c-2.929-2.929-7.678-2.929-10.606,0l-2.697,2.697l-2.697-2.697
		c-2.929-2.929-7.678-2.929-10.606,0c-2.929,2.929-2.929,7.677,0,10.606l2.697,2.697l-2.697,2.697
		C302.251,259.094,302.251,263.842,305.181,266.771z"/>
	<path d="M203.787,240.164c-2.929-2.929-7.678-2.929-10.606,0l-2.697,2.697l-2.697-2.697c-2.929-2.929-7.678-2.929-10.606,0
		c-2.929,2.929-2.929,7.677,0,10.606l2.697,2.697l-2.697,2.697c-2.929,2.929-2.929,7.677,0,10.606
		c1.464,1.464,3.384,2.197,5.303,2.197s3.839-0.732,5.303-2.197l2.697-2.697l2.697,2.697c1.464,1.464,3.384,2.197,5.303,2.197
		s3.839-0.732,5.303-2.197c2.929-2.929,2.929-7.677,0-10.606l-2.697-2.697l2.697-2.697
		C206.716,247.842,206.716,243.094,203.787,240.164z"/>
	<path d="M305.181,362.771c1.464,1.464,3.384,2.197,5.303,2.197s3.839-0.732,5.303-2.197l2.697-2.697l2.697,2.697
		c1.464,1.464,3.384,2.197,5.303,2.197s3.839-0.732,5.303-2.197c2.929-2.929,2.929-7.677,0-10.606l-2.697-2.697l2.697-2.697
		c2.929-2.929,2.929-7.677,0-10.606c-2.929-2.929-7.678-2.929-10.606,0l-2.697,2.697l-2.697-2.697
		c-2.929-2.929-7.678-2.929-10.606,0c-2.929,2.929-2.929,7.677,0,10.606l2.697,2.697l-2.697,2.697
		C302.251,355.094,302.251,359.842,305.181,362.771z"/>
	<path d="M203.787,336.164c-2.929-2.929-7.678-2.929-10.606,0l-2.697,2.697l-2.697-2.697c-2.929-2.929-7.678-2.929-10.606,0
		c-2.929,2.929-2.929,7.677,0,10.606l2.697,2.697l-2.697,2.697c-2.929,2.929-2.929,7.677,0,10.606
		c1.464,1.464,3.384,2.197,5.303,2.197s3.839-0.732,5.303-2.197l2.697-2.697l2.697,2.697c1.464,1.464,3.384,2.197,5.303,2.197
		s3.839-0.732,5.303-2.197c2.929-2.929,2.929-7.677,0-10.606l-2.697-2.697l2.697-2.697
		C206.716,343.842,206.716,339.094,203.787,336.164z"/>
	<path d="M299.787,192.164c-2.929-2.929-7.678-2.929-10.606,0l-2.697,2.697l-2.697-2.697c-2.929-2.929-7.678-2.929-10.606,0
		c-2.929,2.929-2.929,7.677,0,10.606l2.697,2.697l-2.697,2.697c-2.929,2.929-2.929,7.677,0,10.606
		c1.464,1.464,3.384,2.197,5.303,2.197s3.839-0.732,5.303-2.197l2.697-2.697l2.697,2.697c1.464,1.464,3.384,2.197,5.303,2.197
		s3.839-0.732,5.303-2.197c2.929-2.929,2.929-7.677,0-10.606l-2.697-2.697l2.697-2.697
		C302.716,199.842,302.716,195.094,299.787,192.164z"/>
	<path d="M235.787,192.164c-2.929-2.929-7.678-2.929-10.606,0l-2.697,2.697l-2.697-2.697c-2.929-2.929-7.678-2.929-10.606,0
		c-2.929,2.929-2.929,7.677,0,10.606l2.697,2.697l-2.697,2.697c-2.929,2.929-2.929,7.677,0,10.606
		c1.464,1.464,3.384,2.197,5.303,2.197s3.839-0.732,5.303-2.197l2.697-2.697l2.697,2.697c1.464,1.464,3.384,2.197,5.303,2.197
		s3.839-0.732,5.303-2.197c2.929-2.929,2.929-7.677,0-10.606l-2.697-2.697l2.697-2.697
		C238.716,199.842,238.716,195.094,235.787,192.164z"/>
	<path d="M299.787,96.164c-2.929-2.929-7.678-2.929-10.606,0l-2.697,2.697l-2.697-2.697c-2.929-2.929-7.678-2.929-10.606,0
		c-2.929,2.929-2.929,7.677,0,10.606l2.697,2.697l-2.697,2.697c-2.929,2.929-2.929,7.677,0,10.606
		c1.464,1.464,3.384,2.197,5.303,2.197s3.839-0.732,5.303-2.197l2.697-2.697l2.697,2.697c1.464,1.464,3.384,2.197,5.303,2.197
		s3.839-0.732,5.303-2.197c2.929-2.929,2.929-7.677,0-10.606l-2.697-2.697l2.697-2.697
		C302.716,103.842,302.716,99.094,299.787,96.164z"/>
	<path d="M81.181,122.771c1.464,1.464,3.384,2.197,5.303,2.197s3.839-0.732,5.303-2.197l2.697-2.697l2.697,2.697
		c1.464,1.464,3.384,2.197,5.303,2.197s3.839-0.732,5.303-2.197c2.929-2.929,2.929-7.677,0-10.606l-2.697-2.697l2.697-2.697
		c2.929-2.929,2.929-7.677,0-10.606c-2.929-2.929-7.678-2.929-10.606,0l-2.697,2.697l-2.697-2.697
		c-2.929-2.929-7.678-2.929-10.606,0c-2.929,2.929-2.929,7.677,0,10.606l2.697,2.697l-2.697,2.697
		C78.251,115.094,78.251,119.842,81.181,122.771z"/>
	<path d="M401.181,122.771c1.464,1.464,3.384,2.197,5.303,2.197s3.839-0.732,5.303-2.197l2.697-2.697l2.697,2.697
		c1.464,1.464,3.384,2.197,5.303,2.197s3.839-0.732,5.303-2.197c2.929-2.929,2.929-7.677,0-10.606l-2.697-2.697l2.697-2.697
		c2.929-2.929,2.929-7.677,0-10.606c-2.929-2.929-7.678-2.929-10.606,0l-2.697,2.697l-2.697-2.697
		c-2.929-2.929-7.678-2.929-10.606,0c-2.929,2.929-2.929,7.677,0,10.606l2.697,2.697l-2.697,2.697
		C398.251,115.094,398.251,119.842,401.181,122.771z"/>
	<path d="M235.787,96.164c-2.929-2.929-7.678-2.929-10.606,0l-2.697,2.697l-2.697-2.697c-2.929-2.929-7.678-2.929-10.606,0
		c-2.929,2.929-2.929,7.677,0,10.606l2.697,2.697l-2.697,2.697c-2.929,2.929-2.929,7.677,0,10.606
		c1.464,1.464,3.384,2.197,5.303,2.197s3.839-0.732,5.303-2.197l2.697-2.697l2.697,2.697c1.464,1.464,3.384,2.197,5.303,2.197
		s3.839-0.732,5.303-2.197c2.929-2.929,2.929-7.677,0-10.606l-2.697-2.697l2.697-2.697
		C238.716,103.842,238.716,99.094,235.787,96.164z"/>
	<path d="M299.787,288.164c-2.929-2.929-7.678-2.929-10.606,0l-2.697,2.697l-2.697-2.697c-2.929-2.929-7.678-2.929-10.606,0
		c-2.929,2.929-2.929,7.677,0,10.606l2.697,2.697l-2.697,2.697c-2.929,2.929-2.929,7.677,0,10.606
		c1.464,1.464,3.384,2.197,5.303,2.197s3.839-0.732,5.303-2.197l2.697-2.697l2.697,2.697c1.464,1.464,3.384,2.197,5.303,2.197
		s3.839-0.732,5.303-2.197c2.929-2.929,2.929-7.677,0-10.606l-2.697-2.697l2.697-2.697
		C302.716,295.842,302.716,291.094,299.787,288.164z"/>
	<path d="M235.787,288.164c-2.929-2.929-7.678-2.929-10.606,0l-2.697,2.697l-2.697-2.697c-2.929-2.929-7.678-2.929-10.606,0
		c-2.929,2.929-2.929,7.677,0,10.606l2.697,2.697l-2.697,2.697c-2.929,2.929-2.929,7.677,0,10.606
		c1.464,1.464,3.384,2.197,5.303,2.197s3.839-0.732,5.303-2.197l2.697-2.697l2.697,2.697c1.464,1.464,3.384,2.197,5.303,2.197
		s3.839-0.732,5.303-2.197c2.929-2.929,2.929-7.677,0-10.606l-2.697-2.697l2.697-2.697
		C238.716,295.842,238.716,291.094,235.787,288.164z"/>
</g>
<g>
</g>
<g>
</g>
<g>
</g>
<g>
</g>
<g>
</g>
<g>
</g>
<g>
</g>
<g>
</g>
<g>
</g>
<g>
</g>
<g>
</g>
<g>
</g>
<g>
</g>
<g>
</g>
<g>
</g>
</svg>
