<?xml version="1.0" encoding="UTF-8" standalone="no"?>
<svg xmlns="http://www.w3.org/2000/svg" id="svg8770" width="88.483849" height="99.240463" viewBox="0 0 88.483849 99.240463">
  <g id="layer1" transform="translate(0 -953.12)">
    <path id="path258" d="M85.726172 973.14518c-4.69875-13.68875-17.7375-17.75375-30.76875-19.195-16.37875-1.81375-36.555-1.71375-48.1599998 11.6-4.18375 4.80125-5.03375 10.9275-5.96625 17.00875-1.22125 7.95625-.99125 16.08875.007 24.04997 1.5275 12.1763 7.3875 24.1613 20.5049998 27.2463-.235-.6125-.47125-1.2275-.70625-1.84-.0688 5.7512-1.63375 13.33.13375 18.8887 1.115 3.5113 3.50875-.2325 4.92-1.715 2.09125-2.1962 4.11-4.4637 6.13125-6.7237 3.2875-3.6738 4.665-6.295 10.0925-6.11 15.75.54 32.5075-.9275 41.92375-15.0238 3.8175-5.7137 4.285-14.7937 4.5625-21.41872.37375-8.9625-.51625-17.68875-2.585-26.415-.475-2.005-1.215-.30125-.93.90375 3.63 15.31625 5.795 37.41497-6.165 49.64627-9.73625 9.9525-26.49125 9.68-39.42875 9.235-4.14125-.1413-6.4525 4.5362-9.125 7.5237-2.63125 2.9388-5.22125 6.1288-8.25 8.675.1475-.1237-.29125-7.6662-.28125-8.4975.0325-2.76.0662-5.52.1-8.2812.005-.5-.08-1.6938-.7075-1.84-5.4075-1.2738-9.925-4.9975-13.5574998-9.0438-5.5775-6.2125-6.005-16.2987-6.3375-24.23497-.6-14.375 1.73-28.0675 14.4087498-36.23625 5.21875-3.36375 12.035-3.74375 18.03-4.40625 6.405-.7075 12.86875-.63875 19.2875-.2125 12.7925.85 27.4025 4.28875 32.11625 18.02375.63 1.8325 1.02125-.8175.75-1.6075"/>
    <path id="path262" d="M17.100672 973.22643c-3.14875 6.36375-.83 10.645 2.3225 16.81 4.81125 9.41375 12.1325 17.80747 20.31625 24.40877 4.0625 3.275 8.355 5.395 13.065 7.54 3.355 1.5275 8.17875 3.845 11.65 1.4237 5.34875-3.7312 8.15-7.4462 4.39625-13.385-1.9825-3.1375-5.74125-5.1075-9.09875-6.3125-1.97625-.71-4.0225-.34-5.99375.071-2.08125.4338-2.41625 2.7088-4.67625 3.1163-2.60375.4687-7.5525-4.675-9.305-6.1313-3.09875-2.57622-10.14875-8.70872-5.79625-12.95872 3.8225-3.7325 1.25625-9.7375-1.175-13.58625-2.2475-3.56375-6.06625-5.295-10.0275-6.0975-1.7925-.3625-4.90875 3.755-5.6775 5.10125-.3475.6075.2825 3.3575.7525 2.53375 1.3575-2.37375 4.0275-4.8875 6.80125-4.32625 4.5975.93125 13.7275 8.47875 8.77 13.515-2.595 2.63375-2.4725 4.78375-1.5125 8.2175 1.14875 4.1125 3.79375 6.85752 6.85125 9.59872 2.82625 2.53 7.6325 7.6675 11.81125 6.9138.60625-.1075 1.385-1.2425 1.72-1.65 1.445-1.7488 3.6625-1.655 5.67375-1.6925 4.03875-.076 8.27375 3.4537 10.6725 6.3237 3.78875 4.5288-6.605 8.955-9.23125 8.7025-3.845-.3687-8.27625-2.9037-11.74-4.5362-7.57875-3.5738-14.18625-10.2113-19.39625-16.5913-4.56625-5.59122-14.16375-16.90622-10.42-24.47497.3125-.6325-.3475-3.35375-.7525-2.53375"/>
    <path id="path266" d="M48.358042 983.20893c4.3825.5825 8.1025 4.0975 9.00375 8.37375.42625 2.02125 1.16.295.90875-.9-1.085-5.155-4.75125-9.74-10.2275-10.4675-.56875-.075-.55625 2.87875.315 2.99375"/>
    <path id="path270" d="M46.552542 975.99518c9.04125.76375 17.19625 7.51125 17.1775 17.00875-.001.565.5975 3.3425.60125 1.465.0125-6.80625-1.79375-13.245-7.4575-17.46125-2.98-2.21875-6.92375-3.69375-10.63625-4.0075-.21125-.0163-.22625 2.94875.315 2.995"/>
    <path id="path274" d="M43.746172 968.78143c16.01125-.001 26.3775 13.02375 27.26 28.23125.105 1.795 1.37875 1.63125 1.27625-.13375-.94125-16.2075-11.33-31.0925-28.85125-31.09125-.85125 0-.64875 2.99375.315 2.99375"/>
  </g>
</svg>
