<?xml version="1.0" encoding="UTF-8" standalone="no"?>
<svg xmlns="http://www.w3.org/2000/svg" id="svg8351" width="107.14087" height="86.907578" viewBox="0 0 107.14087 86.907578">
  <g id="layer1" transform="translate(-.31 -952.05)">
    <path id="path4240" d="M48.305326 994.57289c8.96375-10.7775 17.9275-21.5562 26.89121-32.335.195-.1325.29-.31.2813-.5325-12.23001-9.635-27.28876-11.9637-42.05376-7.4-.61375.1888-4.85125 1.5313-4.48875 2.6125 4.44875 13.2663 8.89875 26.5325 13.34875 39.7988.3075.9162 6.70375-1.485 6.30375-2.6763-4.45-13.2662-8.9-26.5312-13.34875-39.7987-1.495.8712-2.9925 1.7425-4.48875 2.6125 12.825-3.965 26.08375-1.4225 36.91625 6.3387 2.02625 1.4538 1.74125.715.0125 2.7938-1.7325 2.0812-3.4625 4.1637-5.195 6.245-6.64 7.985-13.27875 15.9675-19.91875 23.9525-.93625 1.125 4.83125-.5188 5.74-1.6113"/>
    <path id="path4244" d="M48.587326 994.04089l-14.64875-39.3387c-.275-.7413-3.09125.505-3.44625.645-14.75125 5.8587-25.8700002 17.1637-29.4175003 32.905-.0975.1875-.0462.31.15625.3687l41.2425003 8.2325c1.85125.3688 5.9675-2.9412 5.92375-2.9487-10.18375-2.0325-20.3675-4.065-30.55125-6.0988-2.43-.485-4.86125-.97-7.2925-1.455-2.1912502-.4375-3.3412502.1225-2.8562502-2.0262 2.7600002-12.25 11.7437502-22.9663 23.3837502-27.5913l-3.44625.645 14.64875 39.3388c.35875.965 6.72125-1.555 6.30375-2.6763"/>
    <path id="path4248" d="M59.322196 990.71089c13.84504 2.34 27.69004 4.6788 41.536234 7.0188 1.395.2362 5.8788-1.19 6.1125-2.8125 2.115-14.6213-2.7912-28.5763-13.649997-38.59-1.096197-1.01-5.239997 1.2587-6.021197 2.1437-9.2963 10.5238-18.59129 21.0475-27.88629 31.5713-.94625 1.07 4.795-.5413 5.74-1.6113 9.29629-10.5237 18.59129-21.0475 27.886287-31.5712-2.007497.715-4.014997 1.4287-6.022497 2.1437 10.858697 10.0138 15.764994 23.9688 13.649994 38.59 2.0375-.9375 4.075-1.875 6.1137-2.8125-13.844997-2.34-27.691194-4.6787-41.536234-7.0187-1.875-.3163-5.91125 2.95-5.9225 2.9487"/>
    <path id="path4252" d="M42.283696 996.71689c4.9125 13.19881 9.82375 26.39501 14.73625 39.59381.27625.7425 3.0925-.505 3.44625-.645 14.75254-5.855 25.87004-17.1613 29.41874-32.9.098-.1875.045-.3088-.1562-.3688-13.7775-2.83121-27.55504-5.66121-41.33129-8.49251-1.84625-.3787-5.9775 2.9388-5.92375 2.9488 10.205 2.0975 20.41125 4.19501 30.61754 6.29121 2.4362.5 4.8712 1 7.3075 1.5013 2.1912.45 3.3487-.1025 2.8637 2.0475-2.7625 12.2487-11.7425 22.9662-23.38499 27.5862l3.44625-.645c-4.9125-13.1975-9.82375-26.395-14.73625-39.59371-.35875-.965-6.72125 1.5537-6.30375 2.6762"/>
    <path id="path4256" d="M48.396946 993.90489c-13.83-2.2962-27.66-4.5912-41.4887502-6.8875-1.39875-.2312-5.8787501 1.1863-6.11375014 2.8125-2.11874996 14.62001 2.79000014 28.58001 13.65000034 38.58881 1.09375 1.0087 5.24375-1.2575 6.02125-2.1438 9.28-10.5662 18.56-21.1337 27.84-31.70121.94625-1.0763-4.79875.54-5.74 1.6112-9.28 10.56631-18.56 21.13381-27.84 31.70251 2.0075-.7162 4.015-1.43 6.0225-2.1437-10.8600002-10.01-15.7687502-23.97-13.6500002-38.58881-2.0375.9375-4.075 1.875-6.11375014 2.8125 13.83125034 2.2963 27.66000034 4.59 41.49000034 6.8863 1.87625.3112 5.90625-2.9513 5.9225-2.9488"/>
    <path id="path4260" d="M42.317826 996.48489c-8.93375 10.86381-17.8675 21.72751-26.80125 32.59131-.0125.077-.0238.155-.035.2325 12.23 9.6362 27.28625 11.9675 42.0525 7.3975.6125-.1913 4.85125-1.5313 4.48875-2.6125-4.4775-13.3513-8.95625-26.7013-13.435-40.05251-.3075-.9163-6.705 1.4837-6.30375 2.6762 4.4775 13.35001 8.95625 26.70131 13.435 40.05251 1.49625-.8712 2.99125-1.7425 4.48875-2.6125-12.82375 3.97-26.0825 1.4263-36.915-6.3375-2.0425-1.4637-1.2075-1.3612.23-3.11 1.72625-2.0987 3.45125-4.1962 5.17625-6.295 6.61875-8.0475 13.23625-16.095 19.85375-24.14251-.11.135-5.00875.72-6.235 2.2125"/>
  </g>
</svg>
