<?xml version="1.0" encoding="iso-8859-1"?>
<!-- Generator: Adobe Illustrator 19.0.0, SVG Export Plug-In . SVG Version: 6.00 Build 0)  -->
<svg version="1.1" id="Layer_1" xmlns="http://www.w3.org/2000/svg" xmlns:xlink="http://www.w3.org/1999/xlink" x="0px" y="0px"
	 viewBox="0 0 512 512" style="enable-background:new 0 0 512 512;" xml:space="preserve">
<g>
	<g>
		<path d="M433.73,0h-15.208H407.37h-15.208h-63.062h-15.208h-11.152h-15.208h-63.062h-15.208h-11.152h-15.208h-63.062H104.63
			H93.478H78.27H0v78.27v15.208v11.152v15.208v63.062v15.208v11.152v15.208v63.062v15.208v11.152v15.208v63.062v15.208v11.153
			v15.208V512h78.27h15.208h11.152h15.208h63.062h15.208h11.152h15.208h63.062h15.208h11.152h15.208h63.062h15.208h11.153h15.208
			H512v-78.27v-15.208V407.37v-15.208v-63.062v-15.208v-11.152v-15.208v-63.062v-15.208v-11.152v-15.208v-63.062V104.63V93.478
			V78.27V0H433.73z M78.27,496.792H15.208V433.73H78.27V496.792z M78.27,418.522H15.208V407.37H78.27V418.522z M78.27,392.162
			H15.208v-63.062H78.27V392.162z M78.27,313.891H15.208v-11.152H78.27V313.891z M78.27,287.531H15.208v-63.062H78.27V287.531z
			 M78.27,209.261H15.208v-11.152H78.27V209.261z M78.27,182.901H15.208v-63.062H78.27V182.901z M78.27,104.63H15.208V93.478H78.27
			V104.63z M78.27,78.27H15.208V15.208H78.27V78.27z M104.63,496.792H93.478V433.73h11.152V496.792z M104.63,418.522H93.478V407.37
			h11.152V418.522z M104.63,392.162H93.478v-63.062h11.152V392.162z M104.63,313.891H93.478v-11.152h11.152V313.891z
			 M104.63,287.531H93.478v-63.062h11.152V287.531z M104.63,209.261H93.478v-11.152h11.152V209.261z M104.63,182.901H93.478v-63.062
			h11.152V182.901z M104.63,104.63H93.478V93.478h11.152V104.63z M104.63,78.27H93.478V15.208h11.152V78.27z M182.901,496.792
			h-63.062V433.73h63.062V496.792z M182.901,418.522h-63.062V407.37h63.062V418.522z M182.901,392.162h-63.062v-63.062h63.062
			V392.162z M182.901,313.891h-63.062v-11.152h63.062V313.891z M182.901,287.531h-63.062v-63.062h63.062V287.531z M182.901,209.261
			h-63.062v-11.152h63.062V209.261z M182.901,182.901h-63.062v-63.062h63.062V182.901z M182.901,104.63h-63.062V93.478h63.062
			V104.63z M182.901,78.27h-63.062V15.208h63.062V78.27z M209.261,496.792h-11.152V433.73h11.152V496.792z M209.261,418.522h-11.152
			V407.37h11.152V418.522z M209.261,392.162h-11.152v-63.062h11.152V392.162z M209.261,313.891h-11.152v-11.152h11.152V313.891z
			 M209.261,287.531h-11.152v-63.062h11.152V287.531z M209.261,209.261h-11.152v-11.152h11.152V209.261z M209.261,182.901h-11.152
			v-63.062h11.152V182.901z M209.261,104.63h-11.152V93.478h11.152V104.63z M209.261,78.27h-11.152V15.208h11.152V78.27z
			 M287.531,496.792h-63.062V433.73h63.062V496.792z M287.531,418.522h-63.062V407.37h63.062V418.522z M287.531,392.162h-63.062
			v-63.062h63.062V392.162z M287.531,313.891h-63.062v-11.152h63.062V313.891z M287.531,287.531h-63.062v-63.062h63.062V287.531z
			 M287.531,209.261h-63.062v-11.152h63.062V209.261z M287.531,182.901h-63.062v-63.062h63.062V182.901z M287.531,104.63h-63.062
			V93.478h63.062V104.63z M287.531,78.27h-63.062V15.208h63.062V78.27z M313.891,496.792h-11.152V433.73h11.152V496.792z
			 M313.891,418.522h-11.152V407.37h11.152V418.522z M313.891,392.162h-11.152v-63.062h11.152V392.162z M313.891,313.891h-11.152
			v-11.152h11.152V313.891z M313.891,287.531h-11.152v-63.062h11.152V287.531z M313.891,209.261h-11.152v-11.152h11.152V209.261z
			 M313.891,182.901h-11.152v-63.062h11.152V182.901z M313.891,104.63h-11.152V93.478h11.152V104.63z M313.891,78.27h-11.152V15.208
			h11.152V78.27z M329.099,93.478h63.062v11.152h-63.062V93.478z M329.099,119.838h63.062v63.062h-63.062V119.838z M329.099,198.109
			h63.062v11.152h-63.062V198.109z M329.099,224.469h63.062v63.062h-63.062V224.469z M329.099,302.739h63.062v11.152h-63.062
			V302.739z M329.099,329.099h63.062v63.062h-63.062V329.099z M392.162,496.792h-63.062V433.73h63.062V496.792z M392.162,418.522
			h-63.062V407.37h63.062V418.522z M392.162,78.27h-63.062V15.208h63.062V78.27z M418.522,496.792H407.37V433.73h11.152V496.792z
			 M418.522,418.522H407.37V407.37h11.152V418.522z M418.522,392.162H407.37v-63.062h11.152V392.162z M418.522,313.891H407.37
			v-11.152h11.152V313.891z M418.522,287.531H407.37v-63.062h11.152V287.531z M418.522,209.261H407.37v-11.152h11.152V209.261z
			 M418.522,182.901H407.37v-63.062h11.152V182.901z M418.522,104.63H407.37V93.478h11.152V104.63z M418.522,78.27H407.37V15.208
			h11.152V78.27z M496.792,496.792H433.73V433.73h63.062V496.792z M496.792,418.522H433.73V407.37h63.062V418.522z M496.792,392.162
			H433.73v-63.062h63.062V392.162z M496.792,313.891H433.73v-11.152h63.062V313.891z M496.792,287.531H433.73v-63.062h63.062
			V287.531z M496.792,209.261H433.73v-11.152h63.062V209.261z M496.792,182.901H433.73v-63.062h63.062V182.901z M496.792,104.63
			H433.73V93.478h63.062V104.63z M496.792,78.27H433.73V15.208h63.062V78.27z"/>
	</g>
</g>
<g>
</g>
<g>
</g>
<g>
</g>
<g>
</g>
<g>
</g>
<g>
</g>
<g>
</g>
<g>
</g>
<g>
</g>
<g>
</g>
<g>
</g>
<g>
</g>
<g>
</g>
<g>
</g>
<g>
</g>
</svg>
