<?xml version="1.0" encoding="UTF-8" standalone="no"?>
<svg xmlns="http://www.w3.org/2000/svg" id="svg8351" width="108.41238" height="105.55254" viewBox="0 0 108.41238 105.55254">
  <g id="layer1" transform="translate(-.31 -933.41)">
    <path id="path4264" d="M101.57667 973.04756c7.16875 26.865-7.937499 57.13504-36.402499 62.70754-25.624999 5.0187-50.375-12.405-57.7137495-36.59754-8.0874994-26.6625 8.6824995-57.2825 36.4037505-62.7088 25.624999-5.0162 50.372499 12.4063 57.712498 36.5988.21625.7125 5.47-1.1663 5.15875-2.19-8.21125-27.0638-35.616249-42.3538-62.997498-36.0275-24.827501 5.7362-43.2374999 27.1112-43.4249999 52.8162-.21 28.75134 24.6362489 51.11004 52.5487489 51.31384 25.3325.185 48.713749-18.0763 54.598749-42.54384 2.02625-8.4225 1.4925-17.2462-.725-25.5587-.17875-.6663-5.44625 1.1112-5.15875 2.19"/>
    <path id="path4268" d="M6.9404219 1000.4806c8.9999991-1.77504 17.9399991-4.46134 26.8012501-6.85504 7.14875-1.93 14.374999-3.7213 21.412499-6.0275 8.5075-2.7888 16.965-5.7288 25.4125-8.6713 4.0325-1.405 8.05875-2.82 12.0775-4.26 1.75625-.6312 3.86875-1.1637 5.492499-2.0687.7-.39 1.2025-2.565 1.4375-3.1475.165-.405.75-2.9863 1.14375-3.2063-1.49625.8338-3.43375 1.3263-5.051249 1.91-3.9425 1.4213-7.905 2.8063-11.86375 4.19-8.51625 2.9738-17.04625 5.9263-25.61875 8.755-6.93125 2.2838-14.038749 4.0563-21.082499 5.9625-9.11875 2.4688-18.320001 5.24-27.5812505 7.0663-1.34375.2662-1.655 6.17124-2.5799996 6.35254"/>
    <path id="path4272" d="M8.7873015 970.80456c2.4862495 5.2525 19.9187505 5.6275 39.3037495.1012 6.7275-1.9187 11.355-3.17 17.18875-7.0337 2.72125-1.7988 6.35125-4.5738 8.76875-6.74 2.63875-2.3638 4.46-5.1925 6.80875-7.7925 1.1875-1.3175 1.755-3.6838 1.56-5.4138-.1825-1.6175-1.24375-1.7625-2.25-.6475-2.02875 2.2475-3.53625 4.7375-5.8175 6.7825-2.15375 1.93-4.14125 4.0225-6.45875 5.7588-5.14375 3.8525-10.98375 6.395-17.12125 8.1312-6.537499 1.845-13.067499 3.4225-19.769999 4.5288-3.45375.5725-6.915001.915-10.418751.7825-2.1775-.08-6.6525-.2438-7.76625-2.6013-1.36-2.8687-4.4424995 4.1875-3.5162495 6.145l-.51125-2.0012z"/>
    <path id="path4276" d="M23.026801 1028.2786c4.095001-5.2138 10.213751-8.5763 16.067501-11.5125 6.661249-3.3438 13.721249-5.69 20.874999-7.7263 6.61-1.8787 13.07-2.8725 19.95375-2.8375 7.105.033 14.055 1.3288 21.054999 2.3775.525.08 2.0125-5.7562 2.17625-5.7325-6.622499-.9925-13.164999-2.1487-19.874999-2.3587-7.27375-.2275-15.955.2687-22.9375 2.23-6.78 1.905-11.905 3.4862-18.286249 6.4787-6.2325 2.9238-12.51875 5.9488-16.818751 11.4275-.70625.8975-.915 2.7275-1.2225 3.7938-.26125.9112-.4075 3.1212-.9875 3.86"/>
    <path id="path4280" d="M38.384552 942.72656c.39 3.175 1.68375 6.4412 2.56375 9.5037 2.14 7.4388 4.372499 14.8488 6.639999 22.2513 6.195 20.25 12.68875 40.41754 19.72875 60.38754.4375 1.235 1.96375-2.23 2.01625-2.3763.5125-1.465 1.145-3.5225.59-5.0912-6.93125-19.6625-13.32125-39.51754-19.44375-59.44754-2.2725-7.3938-4.5025-14.8075-6.649999-22.2425-.88125-3.06-2.1725-6.3275-2.5625-9.5038-.22375-1.8187-1.58125.5025-1.795.985-.725 1.64-1.31625 3.695-1.0875 5.5338"/>
    <path id="path4284" d="M79.108421 981.59056c-5.495-18.335-19.28-36.4925-38.162499-42.655-1.28875-.42-4.24375 1.0662-4.975 2.1112-13.682501 19.5863-13.257501 44.6138-2.75875 65.36134 6.27875 12.4062 18.403749 26.085 32.788749 29.07 1.325.275 3.9025-.885 4.77125-1.8663 12.24-13.81 12.87125-35.19124 8.33625-52.02124-.18125-.67-5.4475 1.115-5.15875 2.19 4.40875 16.36374 4.09125 37.64754-7.875 51.15004 1.59125-.6225 3.18125-1.2438 4.7725-1.8663-14.505-3.01-25.87625-16.53-32.474999-28.845-10.87875-20.30374-10.71625-45.77504 2.70125-64.98124-1.6575.7037-3.31625 1.4075-4.97375 2.1125 18.786249 6.13 32.382499 24.1875 37.849999 42.43.2125.7075 5.4675-1.1613 5.15875-2.19"/>
  </g>
</svg>
