<?xml version="1.0" encoding="iso-8859-1"?>
<!-- Generator: Adobe Illustrator 19.0.0, SVG Export Plug-In . SVG Version: 6.00 Build 0)  -->
<svg version="1.1" id="Capa_1" xmlns="http://www.w3.org/2000/svg" xmlns:xlink="http://www.w3.org/1999/xlink" x="0px" y="0px"
	 viewBox="0 0 512 512" style="enable-background:new 0 0 512 512;" xml:space="preserve">
<path style="fill:#C6C5CB;" d="M508.749,272.112c0.044-0.051,0.089-0.101,0.13-0.153c0.038-0.047,0.071-0.095,0.107-0.142
	c0.038-0.05,0.077-0.1,0.113-0.151c0.033-0.048,0.064-0.097,0.095-0.145c0.033-0.051,0.068-0.101,0.098-0.153
	c0.029-0.049,0.054-0.098,0.082-0.147c0.028-0.051,0.06-0.103,0.086-0.156c0.025-0.049,0.046-0.099,0.069-0.148
	c0.024-0.052,0.05-0.104,0.072-0.158c0.021-0.05,0.038-0.1,0.056-0.15c0.02-0.052,0.041-0.106,0.059-0.158
	c0.017-0.05,0.029-0.101,0.045-0.151c0.016-0.053,0.032-0.107,0.046-0.159c0.013-0.05,0.021-0.101,0.031-0.153
	c0.011-0.053,0.024-0.107,0.032-0.161c0.008-0.051,0.013-0.102,0.019-0.154c0.006-0.053,0.015-0.107,0.019-0.161
	c0.004-0.051,0.005-0.103,0.006-0.155c0.002-0.048,0.006-0.096,0.006-0.143v-56.466c0,0.048-0.004,0.096-0.006,0.143
	c0.07-1.743-1.045-3.499-3.348-4.83L289.203,82.566c-4.451-2.57-11.645-2.57-16.068,0L5.38,238.168
	c-2.204,1.281-3.303,2.958-3.301,4.637c0-0.005-0.001-0.01-0.001-0.016v56.466c0,0.006,0.001,0.011,0.001,0.018
	c0,0.029,0.002,0.06,0.003,0.089c0.036,1.659,0.997,3.313,3.19,4.58l217.526,125.495c4.451,2.57,11.645,2.57,16.068,0
	l267.755-155.602c0.138-0.08,0.271-0.162,0.4-0.245c0.049-0.031,0.094-0.064,0.141-0.095c0.078-0.052,0.159-0.104,0.234-0.159
	c0.047-0.033,0.091-0.068,0.136-0.102c0.071-0.053,0.144-0.106,0.212-0.16c0.049-0.039,0.094-0.078,0.141-0.118
	c0.061-0.05,0.123-0.1,0.181-0.152c0.047-0.042,0.091-0.085,0.136-0.126c0.054-0.05,0.11-0.099,0.161-0.149
	c0.044-0.043,0.084-0.087,0.125-0.13c0.049-0.051,0.099-0.101,0.146-0.153C508.674,272.202,508.711,272.157,508.749,272.112z"/>
<path style="fill:#E0E0E2;" d="M230.842,433.445c-3.264,0-6.532-0.737-9.083-2.209L4.393,305.741c-2.83-1.633-4.39-3.93-4.393-6.467
	c-0.003-2.524,1.536-4.811,4.335-6.437L272.09,137.236c5.074-2.949,13.047-2.95,18.152-0.003l217.365,125.495
	c2.83,1.633,4.39,3.93,4.393,6.467c0.003,2.524-1.536,4.811-4.335,6.437L239.91,431.233
	C237.372,432.709,234.108,433.445,230.842,433.445z M281.157,139.183c-2.547,0-5.091,0.549-6.979,1.645L6.424,296.43
	c-1.442,0.838-2.27,1.872-2.267,2.838c0.001,0.977,0.845,2.025,2.315,2.873l217.365,125.496c3.804,2.196,10.209,2.197,13.985,0.003
	l267.755-155.602c1.443-0.838,2.27-1.872,2.267-2.838c-0.001-0.977-0.845-2.025-2.314-2.873L288.164,140.831
	C286.26,139.733,283.707,139.183,281.157,139.183z"/>
<path style="fill:#ACABB1;" d="M506.62,217.368L238.865,372.97v56.466L506.62,273.834c2.197-1.277,3.297-2.948,3.302-4.622v-56.466
	C509.917,214.42,508.817,216.091,506.62,217.368z"/>
<path style="fill:#C6C5CB;" d="M222.797,372.97L5.432,247.474c-2.24-1.294-3.358-2.991-3.354-4.686v56.466
	c-0.005,1.695,0.954,3.393,3.194,4.686l217.526,125.495c4.451,2.57,11.645,2.57,16.068,0V372.97
	C234.443,375.54,227.249,375.54,222.797,372.97z"/>
<path style="fill:#D8D8DA;" d="M506.568,208.061c4.451,2.57,4.475,6.738,0.052,9.307L238.865,372.97
	c-4.422,2.57-11.617,2.57-16.068,0L5.432,247.474c-4.451-2.57-4.475-6.738-0.052-9.307L273.135,82.566
	c4.422-2.57,11.617-2.57,16.068,0L506.568,208.061z"/>
<path style="fill:#E0E0E2;" d="M230.842,376.979c-3.265,0-6.532-0.737-9.083-2.209L4.393,249.274c-2.83-1.633-4.39-3.93-4.393-6.467
	c-0.003-2.524,1.536-4.811,4.335-6.438L272.09,80.767c5.074-2.949,13.047-2.951,18.152-0.003l217.365,125.496
	c2.83,1.633,4.39,3.93,4.393,6.467c0.003,2.524-1.536,4.811-4.335,6.438L239.91,374.767
	C237.373,376.241,234.108,376.979,230.842,376.979z M281.157,82.717c-2.547,0-5.091,0.549-6.979,1.645L6.424,239.964
	c-1.442,0.838-2.27,1.872-2.267,2.838c0.001,0.977,0.845,2.025,2.315,2.873l217.365,125.495c3.804,2.196,10.209,2.197,13.985,0.003
	l267.755-155.602c1.443-0.838,2.27-1.872,2.267-2.838c-0.001-0.977-0.845-2.025-2.314-2.873L288.164,84.365
	C286.261,83.267,283.707,82.717,281.157,82.717z"/>
<path style="fill:#C6C5CB;" d="M411.063,183.9c-2.123-1.226-5.557-1.226-7.666,0c-2.112,1.227-2.098,3.215,0.025,4.441
	c2.125,1.227,5.555,1.227,7.666,0C413.197,187.115,413.187,185.128,411.063,183.9 M370.034,160.212
	c-2.123-1.226-5.557-1.226-7.666,0c-2.112,1.227-2.098,3.215,0.025,4.441c2.125,1.227,5.555,1.227,7.666,0
	C372.168,163.427,372.158,161.439,370.034,160.212 M329.004,136.524c-2.123-1.226-5.557-1.226-7.666,0
	c-2.112,1.227-2.098,3.215,0.025,4.441c2.125,1.227,5.555,1.227,7.666,0C331.139,139.738,331.129,137.751,329.004,136.524
	 M287.975,112.835c-2.123-1.226-5.557-1.226-7.666,0c-2.112,1.227-2.098,3.215,0.025,4.441c2.125,1.227,5.557,1.228,7.669,0.001
	C290.112,116.051,290.1,114.063,287.975,112.835 M404.629,211.405c-2.123-1.226-5.555-1.227-7.666,0
	c-2.109,1.226-2.098,3.215,0.025,4.441c2.125,1.227,5.557,1.226,7.666,0C406.765,214.618,406.755,212.631,404.629,211.405
	 M363.6,187.717c-2.123-1.226-5.555-1.227-7.666,0c-2.109,1.226-2.098,3.215,0.025,4.441c2.125,1.227,5.557,1.226,7.666,0
	C365.736,190.93,365.725,188.943,363.6,187.717 M322.571,164.028c-2.123-1.226-5.555-1.227-7.666,0
	c-2.109,1.226-2.098,3.215,0.025,4.441c2.125,1.227,5.557,1.226,7.666,0C324.707,167.242,324.696,165.256,322.571,164.028
	 M281.541,140.34c-2.123-1.226-5.555-1.227-7.666,0c-2.109,1.226-2.098,3.215,0.025,4.441c2.125,1.227,5.557,1.226,7.666,0
	C283.678,143.553,283.667,141.567,281.541,140.34 M396.945,239.636c-2.123-1.226-5.557-1.226-7.666,0
	c-2.112,1.227-2.1,3.216,0.023,4.442c2.125,1.227,5.557,1.226,7.668-0.001C399.08,242.851,399.071,240.862,396.945,239.636
	 M355.916,215.948c-2.123-1.226-5.557-1.226-7.666,0c-2.112,1.227-2.1,3.216,0.023,4.442c2.125,1.227,5.557,1.226,7.668-0.001
	C358.051,219.162,358.042,217.175,355.916,215.948 M314.887,192.259c-2.123-1.226-5.557-1.226-7.666,0
	c-2.112,1.227-2.1,3.216,0.023,4.442c2.125,1.227,5.557,1.226,7.668-0.001C317.022,195.474,317.013,193.486,314.887,192.259
	 M273.858,168.571c-2.123-1.226-5.557-1.226-7.666,0c-2.112,1.227-2.1,3.216,0.023,4.442c2.125,1.227,5.557,1.226,7.669-0.001
	C275.992,171.786,275.984,169.798,273.858,168.571 M232.829,144.883c-2.123-1.226-5.557-1.226-7.666,0
	c-2.112,1.227-2.1,3.216,0.023,4.442c2.125,1.227,5.559,1.227,7.671,0C234.965,148.099,234.955,146.11,232.829,144.883
	 M349.483,243.452c-2.123-1.226-5.557-1.226-7.666,0c-2.112,1.227-2.098,3.215,0.025,4.441c2.125,1.227,5.555,1.227,7.666,0
	C351.618,246.667,351.608,244.678,349.483,243.452 M308.454,219.764c-2.123-1.226-5.557-1.226-7.666,0
	c-2.112,1.227-2.098,3.215,0.025,4.441c2.125,1.227,5.555,1.227,7.666,0C310.589,222.979,310.579,220.99,308.454,219.764
	 M267.425,196.076c-2.123-1.226-5.557-1.226-7.666,0c-2.112,1.227-2.098,3.215,0.025,4.441c2.125,1.227,5.555,1.227,7.666,0
	C269.56,199.29,269.55,197.303,267.425,196.076 M226.396,172.387c-2.123-1.226-5.557-1.226-7.666,0
	c-2.112,1.227-2.098,3.215,0.025,4.441c2.125,1.227,5.555,1.227,7.666,0C228.53,175.602,228.521,173.615,226.396,172.387
	 M341.798,271.684c-2.123-1.226-5.555-1.227-7.666,0c-2.109,1.226-2.098,3.215,0.025,4.441c2.125,1.227,5.557,1.226,7.666,0
	C343.933,274.898,343.923,272.911,341.798,271.684 M300.769,247.996c-2.123-1.226-5.555-1.227-7.666,0
	c-2.109,1.226-2.098,3.215,0.025,4.441c2.125,1.227,5.557,1.226,7.666,0C302.904,251.21,302.894,249.223,300.769,247.996
	 M259.74,224.308c-2.123-1.226-5.555-1.227-7.666,0c-2.109,1.226-2.098,3.215,0.025,4.441c2.125,1.227,5.557,1.226,7.666,0
	C261.875,227.521,261.865,225.535,259.74,224.308 M218.711,200.619c-2.123-1.226-5.555-1.227-7.666,0
	c-2.109,1.226-2.098,3.215,0.025,4.441c2.125,1.227,5.557,1.226,7.666,0C220.846,203.833,220.835,201.847,218.711,200.619
	 M177.682,176.931c-2.123-1.226-5.555-1.227-7.666,0c-2.109,1.226-2.098,3.215,0.025,4.441c2.125,1.227,5.559,1.227,7.669,0.001
	C179.82,180.146,179.806,178.158,177.682,176.931 M294.337,275.5c-2.123-1.226-5.557-1.226-7.666,0
	c-2.112,1.227-2.098,3.215,0.025,4.441c2.125,1.227,5.555,1.227,7.666,0C296.471,278.714,296.463,276.726,294.337,275.5
	 M253.308,251.811c-2.123-1.226-5.557-1.226-7.666,0c-2.112,1.227-2.098,3.215,0.025,4.441c2.125,1.227,5.555,1.227,7.666,0
	C255.442,255.026,255.434,253.038,253.308,251.811 M212.279,228.123c-2.123-1.226-5.557-1.226-7.666,0
	c-2.112,1.227-2.098,3.215,0.025,4.441c2.125,1.227,5.555,1.227,7.666,0C214.413,231.338,214.405,229.35,212.279,228.123
	 M171.25,204.435c-2.123-1.226-5.557-1.226-7.666,0c-2.112,1.227-2.098,3.215,0.025,4.441c2.125,1.227,5.555,1.227,7.666,0
	C173.384,207.649,173.375,205.662,171.25,204.435 M286.652,303.732c-2.123-1.226-5.555-1.227-7.666,0
	c-2.109,1.226-2.098,3.215,0.025,4.441c2.125,1.227,5.557,1.226,7.666,0C288.788,306.945,288.776,304.958,286.652,303.732
	 M245.622,280.043c-2.123-1.226-5.555-1.227-7.666,0c-2.109,1.226-2.098,3.215,0.025,4.441c2.125,1.227,5.557,1.226,7.666,0
	C247.759,283.257,247.747,281.271,245.622,280.043 M204.593,256.355c-2.123-1.226-5.555-1.227-7.666,0
	c-2.109,1.226-2.098,3.215,0.025,4.441c2.125,1.227,5.557,1.226,7.666,0C206.73,259.568,206.718,257.582,204.593,256.355
	 M163.564,232.667c-2.123-1.226-5.555-1.227-7.666,0c-2.109,1.226-2.098,3.215,0.025,4.441c2.125,1.227,5.557,1.226,7.666,0
	C165.701,235.88,165.689,233.894,163.564,232.667 M122.535,208.978c-2.123-1.226-5.555-1.227-7.666,0
	c-2.109,1.226-2.098,3.215,0.025,4.441c2.125,1.227,5.559,1.227,7.669,0.001C124.674,212.193,124.661,210.206,122.535,208.978
	 M239.192,307.547c-2.123-1.226-5.557-1.226-7.669,0.001c-2.109,1.226-2.098,3.215,0.025,4.441c2.125,1.227,5.557,1.226,7.666,0
	C241.325,310.761,241.316,308.773,239.192,307.547 M198.162,283.859c-2.123-1.226-5.557-1.226-7.669,0.001
	c-2.109,1.226-2.098,3.215,0.025,4.441c2.125,1.227,5.557,1.226,7.666,0C200.296,287.073,200.287,285.086,198.162,283.859
	 M157.133,260.17c-2.123-1.226-5.557-1.226-7.669,0.001c-2.109,1.226-2.098,3.215,0.025,4.441c2.125,1.227,5.557,1.226,7.666,0
	C159.268,263.385,159.258,261.397,157.133,260.17 M116.104,236.482c-2.123-1.226-5.557-1.226-7.669,0.001
	c-2.109,1.226-2.098,3.215,0.025,4.441c2.125,1.227,5.557,1.226,7.666,0C118.239,239.697,118.229,237.709,116.104,236.482
	 M231.505,335.779c-2.123-1.226-5.557-1.226-7.666,0c-2.112,1.227-2.098,3.215,0.025,4.441c2.125,1.227,5.555,1.227,7.666,0
	C233.64,338.994,233.631,337.005,231.505,335.779 M190.477,312.091c-2.123-1.226-5.557-1.226-7.666,0
	c-2.112,1.227-2.098,3.215,0.025,4.441c2.125,1.227,5.555,1.227,7.666,0C192.61,315.305,192.602,313.318,190.477,312.091
	 M149.448,288.402c-2.123-1.226-5.557-1.226-7.666,0c-2.112,1.227-2.098,3.215,0.025,4.441c2.125,1.227,5.555,1.227,7.666,0
	C151.581,291.617,151.573,289.63,149.448,288.402 M108.419,264.714c-2.123-1.226-5.557-1.226-7.666,0
	c-2.112,1.227-2.098,3.215,0.025,4.441c2.125,1.227,5.555,1.227,7.666,0C110.552,267.929,110.544,265.941,108.419,264.714
	 M67.39,241.026c-2.123-1.226-5.557-1.226-7.666,0c-2.112,1.227-2.098,3.215,0.025,4.441c2.125,1.227,5.557,1.228,7.669,0.001
	C69.525,244.243,69.515,242.253,67.39,241.026 M452.092,207.589c-2.123-1.226-5.557-1.226-7.666,0
	c-2.112,1.227-2.098,3.215,0.025,4.441c2.125,1.227,5.555,1.227,7.666,0C454.225,210.803,454.217,208.815,452.092,207.589"/>
<g>
</g>
<g>
</g>
<g>
</g>
<g>
</g>
<g>
</g>
<g>
</g>
<g>
</g>
<g>
</g>
<g>
</g>
<g>
</g>
<g>
</g>
<g>
</g>
<g>
</g>
<g>
</g>
<g>
</g>
</svg>
