<svg xmlns="http://www.w3.org/2000/svg" width="179.624" height="202.614" viewBox="0 0 179.624 202.614">
  <path d="M166.415 55.377h-22.589v-1.368C143.816 24.25 119.596 0 89.807 0c-29.799 0-54.01 24.25-54.01 54.009v1.368H13.209L0 202.614h179.624L166.415 55.377zM89.807 6.624c19.687 0 36.619 12.105 43.761 29.232-9.448-14.137-25.5-23.478-43.761-23.478-18.231 0-34.313 9.34-43.77 23.507C53.218 18.729 70.14 6.624 89.807 6.624zM45.802 55.377c4.406-20.263 22.481-35.485 44.024-35.485 21.582 0 39.618 15.222 44.024 35.485H45.802z"/>
</svg>
