<?xml version="1.0" encoding="iso-8859-1"?>
<!-- Generator: Adobe Illustrator 19.0.0, SVG Export Plug-In . SVG Version: 6.00 Build 0)  -->
<svg version="1.1" id="Layer_1" xmlns="http://www.w3.org/2000/svg" xmlns:xlink="http://www.w3.org/1999/xlink" x="0px" y="0px"
	 viewBox="0 0 511.999 511.999" width="511.999" height="511.999" style="enable-background:new 0 0 511.999 511.999;" xml:space="preserve">
<g>
	<g>
		<path d="M235.894,283.414l-34.755-34.756c-8.403-8.403-13.032-19.576-13.032-31.461v-102.33c0-4.434-3.389-8.132-7.806-8.519
			L23.581,92.643c-4.647-0.396-8.804,3.025-9.255,7.694L0.433,243.883c-4.414,45.619,25.341,87.697,69.52,98.941l53.265,53.265
			c15.533,15.532,35.936,23.298,56.338,23.298c20.403,0,40.806-7.766,56.339-23.298
			C266.958,365.024,266.958,314.479,235.894,283.414z M30.531,110.416l140.475,12.286v33.699l-143.71-12.569L30.531,110.416z
			 M69.956,325.034c-33.7-10.688-55.96-43.758-52.501-79.504l0.563-5.819c31.543,3.383,56.19,30.162,56.19,62.596
			C74.208,310.183,72.765,317.803,69.956,325.034z M135.312,383.994l-50.387-50.385c4.224-9.907,6.384-20.417,6.384-31.302
			c0-41.309-31.442-75.406-71.644-79.621l5.984-61.831l145.358,12.713v43.629c0,16.452,6.407,31.92,18.039,43.553l34.755,34.755
			c6.001,6.001,10.518,12.931,13.567,20.328c-44.214,2.173-79.923,37.155-83.291,81.051
			C147.268,393.857,140.888,389.57,135.312,383.994z M223.802,383.995c-14.39,14.39-34.103,20.284-52.86,17.698
			c1.052-38.141,32.374-68.851,70.762-68.868C243.717,351.07,237.761,370.036,223.802,383.995z"/>
	</g>
</g>
<g>
	<g>
		<path d="M488.702,283.414l-34.755-34.755c-8.405-8.405-13.033-19.577-13.033-31.461v-102.33c0-4.434-3.389-8.132-7.806-8.519
			L276.388,92.643c-4.651-0.396-8.804,3.025-9.255,7.694L253.24,243.884c-4.414,45.619,25.341,87.697,69.52,98.941l53.265,53.265
			c15.533,15.532,35.936,23.298,56.337,23.298c20.403,0,40.806-7.766,56.339-23.298
			C519.765,365.024,519.765,314.478,488.702,283.414z M283.338,110.416l140.474,12.286v33.699l-143.709-12.569L283.338,110.416z
			 M322.763,325.034c-33.7-10.688-55.96-43.758-52.501-79.504l0.563-5.819c31.543,3.383,56.19,30.162,56.19,62.596
			C327.015,310.183,325.572,317.803,322.763,325.034z M388.119,383.994l-50.388-50.385c4.224-9.907,6.384-20.417,6.384-31.302
			c0-41.309-31.442-75.406-71.644-79.621l5.984-61.831l145.357,12.713v43.629c0,16.452,6.407,31.92,18.04,43.553l34.755,34.755
			c5.919,5.919,10.507,12.817,13.611,20.327c-44.245,2.152-79.982,37.158-83.338,81.083
			C399.981,393.835,393.624,389.5,388.119,383.994z M476.608,383.995c-11.818,11.818-27.53,18.327-44.245,18.327
			c-2.908,0-5.784-0.21-8.615-0.597c1.036-38.166,32.384-68.9,70.795-68.9c0.001,0,0.002,0,0.003,0
			c0.25,2.285,0.39,4.594,0.39,6.926C494.935,356.464,488.427,372.178,476.608,383.995z"/>
	</g>
</g>
<g>
</g>
<g>
</g>
<g>
</g>
<g>
</g>
<g>
</g>
<g>
</g>
<g>
</g>
<g>
</g>
<g>
</g>
<g>
</g>
<g>
</g>
<g>
</g>
<g>
</g>
<g>
</g>
<g>
</g>
</svg>
