<?xml version="1.0" encoding="iso-8859-1"?>
<!-- Generator: Adobe Illustrator 19.0.0, SVG Export Plug-In . SVG Version: 6.00 Build 0)  -->
<svg version="1.1" id="Capa_1" xmlns="http://www.w3.org/2000/svg" xmlns:xlink="http://www.w3.org/1999/xlink" x="0px" y="0px"
	 viewBox="0 0 511 511" style="enable-background:new 0 0 511 511;" xml:space="preserve">
<g>
	<path d="M390.546,186.457c0.291-3.641,0.454-7.305,0.454-10.957c0-28.194-8.577-55.222-24.804-78.164
		c-15.818-22.363-37.677-39.224-63.223-48.781C302.981,48.204,303,47.854,303,47.5C303,21.309,281.691,0,255.5,0
		S208,21.309,208,47.5c0,0.352,0.019,0.699,0.027,1.05C155.151,68.281,120,118.625,120,175.5c0,3.651,0.163,7.316,0.454,10.957
		C101.617,192.766,88,210.567,88,231.5c0,26.191,21.309,47.5,47.5,47.5c9.104,0,17.615-2.58,24.849-7.039
		c17.843,17.637,39.653,29.703,63.492,35.358l-6.557,163.934c-0.419,10.49,3.355,20.437,10.629,28.008
		c7.274,7.57,17.062,11.74,27.614,11.74c10.499,0,20.286-4.169,27.56-11.74c7.274-7.571,11.049-17.518,10.629-28.008l-6.557-163.934
		c23.839-5.655,45.648-17.721,63.492-35.358C357.885,276.42,366.396,279,375.5,279c26.191,0,47.5-21.309,47.5-47.5
		C423,210.567,409.383,192.766,390.546,186.457z M255.5,15c17.92,0,32.5,14.58,32.5,32.5S273.42,80,255.5,80S223,65.42,223,47.5
		S237.58,15,255.5,15z M135,175.5c0-49.685,30.173-93.745,75.807-111.921C217.411,81.88,234.95,95,255.5,95
		c20.55,0,38.089-13.12,44.693-31.421c21.65,8.644,40.198,23.252,53.757,42.42C368.375,126.393,376,150.426,376,175.5
		c0,2.834-0.11,5.676-0.307,8.505c-0.065,0-0.128-0.005-0.193-0.005c-26.191,0-47.5,21.309-47.5,47.5
		c0,11.668,4.237,22.361,11.243,30.639C316.673,284.012,287.143,296,255.5,296c-31.644,0-61.173-11.988-83.743-33.861
		C178.763,253.861,183,243.168,183,231.5c0-26.191-21.309-47.5-47.5-47.5c-0.065,0-0.128,0.005-0.193,0.005
		C135.11,181.176,135,178.333,135,175.5z M103,231.5c0-17.92,14.58-32.5,32.5-32.5s32.5,14.58,32.5,32.5S153.42,264,135.5,264
		S103,249.42,103,231.5z M278.728,471.852c0.255,6.373-2.039,12.416-6.458,17.016c-4.419,4.599-10.365,7.132-16.797,7.132
		c-6.378,0-12.325-2.533-16.744-7.132c-4.419-4.6-6.712-10.643-6.458-17.016l6.475-161.869c5.51,0.67,11.101,1.017,16.753,1.017
		s11.243-0.346,16.753-1.017L278.728,471.852z M375.5,264c-17.92,0-32.5-14.58-32.5-32.5s14.58-32.5,32.5-32.5s32.5,14.58,32.5,32.5
		S393.42,264,375.5,264z"/>
	<path d="M255.5,47c0.276,0,0.5,0.224,0.5,0.5c0,4.142,3.358,7.5,7.5,7.5s7.5-3.358,7.5-7.5c0-8.547-6.953-15.5-15.5-15.5
		c-4.142,0-7.5,3.358-7.5,7.5S251.358,47,255.5,47z"/>
	<path d="M375.5,216c-4.142,0-7.5,3.358-7.5,7.5s3.358,7.5,7.5,7.5c0.276,0,0.5,0.224,0.5,0.5c0,4.142,3.358,7.5,7.5,7.5
		s7.5-3.358,7.5-7.5C391,222.953,384.047,216,375.5,216z"/>
	<path d="M135.5,216c-4.142,0-7.5,3.358-7.5,7.5s3.358,7.5,7.5,7.5c0.276,0,0.5,0.224,0.5,0.5c0,4.142,3.358,7.5,7.5,7.5
		s7.5-3.358,7.5-7.5C151,222.953,144.047,216,135.5,216z"/>
</g>
<g>
</g>
<g>
</g>
<g>
</g>
<g>
</g>
<g>
</g>
<g>
</g>
<g>
</g>
<g>
</g>
<g>
</g>
<g>
</g>
<g>
</g>
<g>
</g>
<g>
</g>
<g>
</g>
<g>
</g>
</svg>
