<?xml version="1.0" encoding="UTF-8" standalone="no"?>
<svg xmlns="http://www.w3.org/2000/svg" id="svg28692" width="88.355103" height="90.564842" viewBox="0 0 88.355103 90.564842">
  <g id="layer1" transform="translate(0 -961.8)">
    <path id="path544" d="M87.445025 1006.3624c-.445 22.5762-17.6 40.59-39.9275 42.8-23.57375 2.335-45.1737504-16.5113-46.5650004-39.9713-1.3675-23.04998 17.8037504-42.00873 39.8812504-44.19623 24.32125-2.40875 46.1275 17.545 46.60625 41.73003.0225 1.1487.955 2.7875.91375.7062-.46375-23.45123-17.08625-43.07748-40.83625-45.42873-25.90375-2.56625-47.0150004 19.3425-47.5087504 44.36003-.46375 23.5537 17.5100004 43.4862 40.8250004 45.795 25.905 2.565 47.02-19.3425 47.515-44.3625.0125-.71-.86625-3.3413-.90375-1.4325"/>
    <g id="g546" transform="matrix(1.25 0 0 -1.25 40.28 1023.97)">
      <path id="path548" d="M0 0c-1.085-.896-2.18-1.779-3.28-2.656-.896-.711-1.806-1.405-2.731-2.079-.682-.497-.562-1.867-.859-.71-1.036 4.024-2.553 7.967-3.876 11.904-.87 2.59-1.496 2.578-4.1 3.758-3.381 1.531-6.761 3.062-10.143 4.594.046-.789.092-1.577.137-2.364C-8.813 18.765 7.228 25.082 23.267 31.4c-.17.672-.339 1.343-.508 2.014l-8.07-35.508c-.414-1.823-.829-3.646-1.243-5.47-.033-.148.339.065-.324.587-1.166.917-2.333 1.834-3.499 2.752C4.823-.447.022 3.328-4.778 7.105c.081-.769.162-1.54.243-2.309C2.13 10.767 8.796 16.738 15.461 22.709c.429.383.11 2.627-.463 2.285C7.082 20.273-.834 15.551-8.75 10.83c-.525-.314-.083-2.611.463-2.287l23.748 14.166-.463 2.285C8.333 19.023 1.667 13.053-4.998 7.082c-.476-.426-.215-1.949.243-2.31C1.423-.088 7.602-4.949 13.78-9.811c.21-.164.343.23.37.352 3.124 13.746 6.248 27.494 9.372 41.241.051.222.03 2.226-.507 2.013C6.976 27.478-9.063 21.16-25.104 14.842c-.574-.227-.379-2.13.138-2.364l10.143-4.594c.838-.38 1.677-.759 2.514-1.139.88-.399.384.181.478-.099.63-1.861 1.254-3.726 1.874-5.591.46-1.382 1.582-8.207 3.003-8.82C-5.675-8.315-.61-3.174.463-2.287.971-1.867.426.352 0 0"/>
    </g>
  </g>
</svg>
